<svg width="229" height="308" viewBox="0 0 229 308" fill="none" xmlns="http://www.w3.org/2000/svg">
<path fill-rule="evenodd" clip-rule="evenodd" d="M76.3218 0C113.197 0.000687424 144.999 25.6607 152.003 61.5909L127.19 66.727C122.738 43.6274 100.48 25.6597 76.3218 25.659C62.8357 25.6945 49.909 31.1174 40.3714 40.7365C30.835 50.3556 25.4579 63.3915 25.4187 76.996V153.992C25.4618 167.595 30.8422 180.628 40.3793 190.244C49.9165 199.86 62.8385 205.278 76.3218 205.314C89.7964 205.27 102.707 199.851 112.237 190.24C121.767 180.629 127.143 167.603 127.19 154.008V128.333L152.624 128.318V154.008C152.624 196.346 118.287 231.004 76.3064 231.004C34.3399 231.004 0.00012461 196.346 0 154.008V76.996C5.8674e-05 34.643 34.3404 0 76.3218 0Z" fill="white"/>
<path fill-rule="evenodd" clip-rule="evenodd" d="M228.946 154.008C228.946 111.669 194.605 77.0114 152.624 77.0114C110.658 77.0122 76.3064 111.67 76.3064 154.008V179.682H101.756V154.008C101.799 140.41 107.171 127.382 116.701 117.767C126.231 108.153 139.146 102.73 152.624 102.686C166.105 102.726 179.025 108.144 188.559 117.76C198.093 127.375 203.468 140.407 203.511 154.008V231.004C203.472 244.607 198.097 257.641 188.562 267.259C179.028 276.878 166.108 282.302 152.624 282.341C127.827 282.34 106.208 265.017 101.756 241.273L76.3064 246.409C83.3106 282.339 115.748 307.999 152.624 308C194.605 308 228.946 273.357 228.946 231.004V154.008Z" fill="white"/>
</svg>
