<svg width="1080" height="308" viewBox="0 0 1080 308" fill="none" xmlns="http://www.w3.org/2000/svg">
<path fill-rule="evenodd" clip-rule="evenodd" d="M827.153 217.179H857.591V127.408H827.153V217.179ZM956.954 133.053C951.218 127.871 943.722 125.279 934.469 125.279C927.81 125.279 922.043 126.544 917.172 129.074C912.36 131.542 908.812 134.812 906.53 138.884H906.159L905.978 127.408H876.649V217.179H906.716V159.152C908.196 155.697 910.324 152.951 913.099 150.915C915.937 148.879 919.114 147.861 922.628 147.861C926.701 147.861 929.843 148.972 932.066 151.193C934.347 153.414 935.488 157.147 935.488 162.391V217.179H965.555V159.152C965.555 146.874 962.689 138.174 956.954 133.053ZM1041.51 127.408L1013.48 158.504V79.6531H983.413V217.179H1013.48V192.192L1021.34 183.978L1044.66 217.179H1080L1040.76 163.717L1075.56 127.408H1041.51ZM855.092 87.427C852.195 84.4654 847.968 82.9847 842.418 82.9847C836.927 82.9847 832.672 84.4962 829.652 87.5198C826.691 90.4813 825.211 94.1524 825.211 98.5328C825.211 102.913 826.66 106.646 829.557 109.731C832.518 112.754 836.745 114.266 842.232 114.266C847.782 114.266 852.041 112.754 855.002 109.731C858.021 106.646 859.533 102.913 859.533 98.5328C859.533 94.0904 858.053 90.3885 855.092 87.427Z" fill="#D9D9D9"/>
<path fill-rule="evenodd" clip-rule="evenodd" d="M491.321 124.724C506.124 124.724 517.998 128.919 526.938 137.31C535.942 145.64 540.446 156.746 540.446 170.628V173.589C540.446 187.533 535.942 198.701 526.938 207.092C517.998 215.421 506.124 219.586 491.321 219.586C476.519 219.586 464.614 215.421 455.61 207.092C446.606 198.701 442.102 187.533 442.102 173.589V170.628C442.102 156.746 446.606 145.64 455.61 137.31C464.614 128.919 476.519 124.724 491.321 124.724ZM477.443 152.581C480.652 148.509 485.246 146.473 491.227 146.473C497.274 146.473 501.896 148.509 505.106 152.581C508.311 156.653 509.917 162.268 509.917 169.424V174.7C509.917 181.98 508.311 187.687 505.106 191.821C501.96 195.955 497.333 198.022 491.227 198.022C485.183 198.022 480.557 195.955 477.352 191.821C474.206 187.687 472.631 182.011 472.631 174.792V169.424C472.631 162.268 474.237 156.653 477.443 152.581Z" fill="#D9D9D9"/>
<path d="M314.8 169.795C315.109 171.214 315.355 172.571 315.54 173.867C315.726 175.101 315.91 176.582 316.095 178.309H316.651C316.897 176.582 317.113 175.101 317.298 173.867C317.545 172.571 317.822 171.214 318.131 169.795L339.039 82.4295H369.015L390.756 169.795C391.064 171.214 391.311 172.54 391.496 173.774C391.681 175.008 391.897 176.551 392.144 178.402H392.699C392.883 176.551 393.069 175.008 393.254 173.774C393.5 172.479 393.747 171.152 393.994 169.795L412.773 82.4295H440.345L408.889 217.55H376.971L354.767 130.092C354.459 128.796 354.151 127.408 353.842 125.927C353.595 124.446 353.379 122.842 353.195 121.115H352.639C352.454 122.842 352.208 124.446 351.899 125.927C351.652 127.346 351.375 128.735 351.067 130.092L328.955 217.55H296.76L265.027 82.4295H295.28L314.8 169.795Z" fill="#D9D9D9"/>
<path fill-rule="evenodd" clip-rule="evenodd" d="M611.313 125.927C609.832 125.619 608.261 125.464 606.596 125.464C601.847 125.464 597.619 126.729 593.921 129.259C590.218 131.788 587.23 134.966 584.948 138.791H584.763L584.483 127.408H554.692V217.179H585.315V162.576C587.352 158.442 590.218 155.11 593.921 152.581C597.619 150.051 601.539 148.786 605.672 148.786C607.46 148.786 609.094 148.91 610.574 149.156C612.114 149.342 613.44 149.619 614.553 149.99V126.667C613.934 126.421 612.856 126.174 611.313 125.927Z" fill="#D9D9D9"/>
<path fill-rule="evenodd" clip-rule="evenodd" d="M655.444 158.504L683.474 127.408H717.52L682.724 163.717L721.961 217.179H686.62L663.307 183.978L655.444 192.192V217.179H625.377V79.6531H655.444V158.504Z" fill="#D9D9D9"/>
<path fill-rule="evenodd" clip-rule="evenodd" d="M815.035 192.839H761.466V82.4295H730.475V217.179H815.035V192.839Z" fill="#D9D9D9"/>
<path fill-rule="evenodd" clip-rule="evenodd" d="M76.3218 0C113.197 0.000687424 144.999 25.6607 152.003 61.5909L127.19 66.727C122.738 43.6274 100.48 25.6597 76.3218 25.659C62.8357 25.6945 49.909 31.1174 40.3714 40.7365C30.835 50.3556 25.4579 63.3915 25.4187 76.996V153.992C25.4618 167.595 30.8422 180.628 40.3793 190.244C49.9165 199.86 62.8385 205.278 76.3218 205.314C89.7964 205.27 102.707 199.851 112.237 190.24C121.767 180.629 127.143 167.603 127.19 154.008V128.333L152.624 128.318V154.008C152.624 196.346 118.287 231.004 76.3064 231.004C34.3399 231.004 0.00012461 196.346 0 154.008V76.996C5.8674e-05 34.643 34.3404 0 76.3218 0Z" fill="#D9D9D9"/>
<path fill-rule="evenodd" clip-rule="evenodd" d="M228.946 154.008C228.946 111.669 194.605 77.0114 152.624 77.0114C110.658 77.0122 76.3064 111.67 76.3064 154.008V179.682H101.756V154.008C101.799 140.41 107.171 127.382 116.701 117.767C126.231 108.153 139.146 102.73 152.624 102.686C166.105 102.726 179.025 108.144 188.559 117.76C198.093 127.375 203.468 140.407 203.511 154.008V231.004C203.472 244.607 198.097 257.641 188.562 267.259C179.028 276.878 166.108 282.302 152.624 282.341C127.827 282.34 106.208 265.017 101.756 241.273L76.3064 246.409C83.3106 282.339 115.748 307.999 152.624 308C194.605 308 228.946 273.357 228.946 231.004V154.008Z" fill="#D9D9D9"/>
</svg>
