<svg width="32" height="32" viewBox="0 0 32 32" fill="none" xmlns="http://www.w3.org/2000/svg">
<path d="M7.499 23.0617C8.76456 22.1692 10.0593 21.4734 11.3833 20.9743C12.7073 20.4752 14.1351 20.2257 15.6667 20.2257C17.1982 20.2257 18.6282 20.4752 19.9567 20.9743C21.2853 21.4734 22.5824 22.1692 23.848 23.0617C24.7704 22.0092 25.4694 20.8673 25.945 19.636C26.4203 18.4047 26.658 17.0816 26.658 15.6667C26.658 12.5847 25.5967 9.98222 23.474 7.85933C21.3511 5.73666 18.7487 4.67533 15.6667 4.67533C12.5847 4.67533 9.98222 5.73666 7.85933 7.85933C5.73667 9.98222 4.67533 12.5847 4.67533 15.6667C4.67533 17.0816 4.91533 18.4047 5.39533 19.636C5.87533 20.8673 6.57656 22.0092 7.499 23.0617ZM12.6187 15.2683C11.7949 14.4443 11.383 13.4284 11.383 12.2207C11.383 11.0127 11.7949 9.99666 12.6187 9.17266C13.4427 8.34866 14.4587 7.93666 15.6667 7.93666C16.8747 7.93666 17.8907 8.34866 18.7147 9.17266C19.5384 9.99666 19.9503 11.0127 19.9503 12.2207C19.9503 13.4284 19.5384 14.4443 18.7147 15.2683C17.8907 16.0923 16.8747 16.5043 15.6667 16.5043C14.4587 16.5043 13.4427 16.0923 12.6187 15.2683ZM15.6667 28.3333C13.9169 28.3333 12.2729 28.0026 10.7347 27.341C9.19644 26.6794 7.85356 25.7749 6.706 24.6273C5.55844 23.4798 4.65389 22.1369 3.99233 20.5987C3.33078 19.0604 3 17.4164 3 15.6667C3 13.9078 3.33078 12.2614 3.99233 10.7277C4.65389 9.19411 5.55844 7.85355 6.706 6.706C7.85356 5.55844 9.19644 4.65389 10.7347 3.99233C12.2729 3.33077 13.9169 3 15.6667 3C17.4256 3 19.0719 3.33077 20.6057 3.99233C22.1392 4.65389 23.4798 5.55844 24.6273 6.706C25.7749 7.85355 26.6794 9.19411 27.341 10.7277C28.0026 12.2614 28.3333 13.9078 28.3333 15.6667C28.3333 17.4164 28.0026 19.0604 27.341 20.5987C26.6794 22.1369 25.7749 23.4798 24.6273 24.6273C23.4798 25.7749 22.1392 26.6794 20.6057 27.341C19.0719 28.0026 17.4256 28.3333 15.6667 28.3333ZM19.2713 26.0707C20.4471 25.6789 21.5344 25.0736 22.5333 24.2547C21.5344 23.5093 20.4562 22.9307 19.2987 22.5187C18.1411 22.1067 16.9304 21.9007 15.6667 21.9007C14.4029 21.9007 13.1901 22.1046 12.0283 22.5123C10.8663 22.9201 9.79311 23.5009 8.80867 24.2547C9.80178 25.0736 10.8862 25.6789 12.062 26.0707C13.2378 26.4622 14.4393 26.658 15.6667 26.658C16.894 26.658 18.0956 26.4622 19.2713 26.0707ZM17.536 14.0897C18.0289 13.5968 18.2753 12.9738 18.2753 12.2207C18.2753 11.4673 18.0289 10.8442 17.536 10.3513C17.0431 9.85844 16.42 9.612 15.6667 9.612C14.9133 9.612 14.2902 9.85844 13.7973 10.3513C13.3044 10.8442 13.058 11.4673 13.058 12.2207C13.058 12.9738 13.3044 13.5968 13.7973 14.0897C14.2902 14.5826 14.9133 14.829 15.6667 14.829C16.42 14.829 17.0431 14.5826 17.536 14.0897Z" fill="black"/>
</svg>
