<svg width="32" height="32" viewBox="0 0 32 32" fill="none" xmlns="http://www.w3.org/2000/svg">
<path d="M13.0307 17.6513L14.1557 14.017L11.206 11.7813H14.841L16 8.06333L17.1367 11.7813H20.794L17.846 14.017L18.9487 17.6513L16 15.4L13.0307 17.6513ZM8.73 29.3077V19.841C7.81022 18.9077 7.12533 17.8504 6.67533 16.6693C6.22511 15.488 6 14.2649 6 13C6 10.192 6.96467 7.82333 8.894 5.894C10.8233 3.96467 13.192 3 16 3C18.808 3 21.1767 3.96467 23.106 5.894C25.0353 7.82333 26 10.192 26 13C26 14.2649 25.7749 15.488 25.3247 16.6693C24.8747 17.8504 24.1898 18.9077 23.27 19.841V29.3077L16 26.988L8.73 29.3077ZM21.9033 18.9033C23.5176 17.2891 24.3247 15.3213 24.3247 13C24.3247 10.6787 23.5176 8.71089 21.9033 7.09667C20.2891 5.48245 18.3213 4.67533 16 4.67533C13.6787 4.67533 11.7109 5.48245 10.0967 7.09667C8.48244 8.71089 7.67533 10.6787 7.67533 13C7.67533 15.3213 8.48244 17.2891 10.0967 18.9033C11.7109 20.5176 13.6787 21.3247 16 21.3247C18.3213 21.3247 20.2891 20.5176 21.9033 18.9033ZM10.405 26.9437L16 25.2873L21.595 26.9437V21.2273C20.7772 21.8222 19.8869 22.2663 18.924 22.5597C17.9609 22.8532 16.9862 23 16 23C15.0138 23 14.0391 22.8532 13.076 22.5597C12.1131 22.2663 11.2228 21.8222 10.405 21.2273V26.9437Z" fill="black"/>
</svg>
