<svg width="32" height="32" viewBox="0 0 32 32" fill="none" xmlns="http://www.w3.org/2000/svg">
<path fill-rule="evenodd" clip-rule="evenodd" d="M16.1363 9.43945C17.2947 9.43945 19.4691 7.86291 21.7525 8.09473C22.7083 8.13409 25.3941 8.47972 27.1177 11C26.9807 11.09 23.9138 12.8722 23.9507 16.5879C23.9908 21.0216 27.8383 22.4977 27.8863 22.5195C27.8517 22.621 27.269 24.624 25.854 26.6924C24.6318 28.4796 23.365 30.2574 21.3667 30.2939C19.401 30.3314 18.7697 29.1299 16.523 29.1299C14.2767 29.13 13.5755 30.2586 11.7173 30.332C9.78913 30.4055 8.31887 28.4015 7.08647 26.6211C4.56573 22.9788 2.64112 16.3276 5.22807 11.8398C6.50997 9.61037 8.8057 8.19917 11.2964 8.16211C13.19 8.12871 14.9802 9.43945 16.1363 9.43945ZM21.7837 1C21.9721 2.71707 21.2798 4.44227 20.2574 5.68359C19.2312 6.92255 17.552 7.88833 15.9058 7.76074C15.6834 6.07478 16.5133 4.32234 17.4624 3.22168C18.5218 1.98163 20.3081 1.05976 21.7837 1Z" fill="black"/>
</svg>
