<svg width="32" height="32" viewBox="0 0 32 32" fill="none" xmlns="http://www.w3.org/2000/svg">
<path d="M6.37065 25.6293C6.02109 25.2798 5.84631 24.8494 5.84631 24.3383C5.84631 23.8272 6.02109 23.3969 6.37065 23.0473C6.7202 22.6978 7.15054 22.523 7.66165 22.523C8.17276 22.523 8.60309 22.6978 8.95265 23.0473C9.3022 23.3969 9.47698 23.8272 9.47698 24.3383C9.47698 24.8494 9.3022 25.2798 8.95265 25.6293C8.60309 25.9789 8.17276 26.1537 7.66165 26.1537C7.15054 26.1537 6.7202 25.9789 6.37065 25.6293ZM14.709 25.6293C14.3594 25.2798 14.1846 24.8494 14.1846 24.3383C14.1846 23.8272 14.3594 23.3969 14.709 23.0473C15.0585 22.6978 15.4889 22.523 16 22.523C16.5111 22.523 16.9414 22.6978 17.291 23.0473C17.6405 23.3969 17.8153 23.8272 17.8153 24.3383C17.8153 24.8494 17.6405 25.2798 17.291 25.6293C16.9414 25.9789 16.5111 26.1537 16 26.1537C15.4889 26.1537 15.0585 25.9789 14.709 25.6293ZM23.0473 25.6293C22.6978 25.2798 22.523 24.8494 22.523 24.3383C22.523 23.8272 22.6978 23.3969 23.0473 23.0473C23.3969 22.6978 23.8272 22.523 24.3383 22.523C24.8494 22.523 25.2798 22.6978 25.6293 23.0473C25.9789 23.3969 26.1536 23.8272 26.1536 24.3383C26.1536 24.8494 25.9789 25.2798 25.6293 25.6293C25.2798 25.9789 24.8494 26.1537 24.3383 26.1537C23.8272 26.1537 23.3969 25.9789 23.0473 25.6293ZM6.37065 17.291C6.02109 16.9414 5.84631 16.5111 5.84631 16C5.84631 15.4889 6.02109 15.0586 6.37065 14.709C6.7202 14.3594 7.15054 14.1847 7.66165 14.1847C8.17276 14.1847 8.60309 14.3594 8.95265 14.709C9.3022 15.0586 9.47698 15.4889 9.47698 16C9.47698 16.5111 9.3022 16.9414 8.95265 17.291C8.60309 17.6406 8.17276 17.8153 7.66165 17.8153C7.15054 17.8153 6.7202 17.6406 6.37065 17.291ZM14.709 17.291C14.3594 16.9414 14.1846 16.5111 14.1846 16C14.1846 15.4889 14.3594 15.0586 14.709 14.709C15.0585 14.3594 15.4889 14.1847 16 14.1847C16.5111 14.1847 16.9414 14.3594 17.291 14.709C17.6405 15.0586 17.8153 15.4889 17.8153 16C17.8153 16.5111 17.6405 16.9414 17.291 17.291C16.9414 17.6406 16.5111 17.8153 16 17.8153C15.4889 17.8153 15.0585 17.6406 14.709 17.291ZM23.0473 17.291C22.6978 16.9414 22.523 16.5111 22.523 16C22.523 15.4889 22.6978 15.0586 23.0473 14.709C23.3969 14.3594 23.8272 14.1847 24.3383 14.1847C24.8494 14.1847 25.2798 14.3594 25.6293 14.709C25.9789 15.0586 26.1536 15.4889 26.1536 16C26.1536 16.5111 25.9789 16.9414 25.6293 17.291C25.2798 17.6406 24.8494 17.8153 24.3383 17.8153C23.8272 17.8153 23.3969 17.6406 23.0473 17.291ZM6.37065 8.95267C6.02109 8.60311 5.84631 8.17278 5.84631 7.66166C5.84631 7.15055 6.02109 6.72022 6.37065 6.37067C6.7202 6.02111 7.15054 5.84633 7.66165 5.84633C8.17276 5.84633 8.60309 6.02111 8.95265 6.37067C9.3022 6.72022 9.47698 7.15055 9.47698 7.66166C9.47698 8.17278 9.3022 8.60311 8.95265 8.95267C8.60309 9.30222 8.17276 9.477 7.66165 9.477C7.15054 9.477 6.7202 9.30222 6.37065 8.95267ZM14.709 8.95267C14.3594 8.60311 14.1846 8.17278 14.1846 7.66166C14.1846 7.15055 14.3594 6.72022 14.709 6.37067C15.0585 6.02111 15.4889 5.84633 16 5.84633C16.5111 5.84633 16.9414 6.02111 17.291 6.37067C17.6405 6.72022 17.8153 7.15055 17.8153 7.66166C17.8153 8.17278 17.6405 8.60311 17.291 8.95267C16.9414 9.30222 16.5111 9.477 16 9.477C15.4889 9.477 15.0585 9.30222 14.709 8.95267ZM23.0473 8.95267C22.6978 8.60311 22.523 8.17278 22.523 7.66166C22.523 7.15055 22.6978 6.72022 23.0473 6.37067C23.3969 6.02111 23.8272 5.84633 24.3383 5.84633C24.8494 5.84633 25.2798 6.02111 25.6293 6.37067C25.9789 6.72022 26.1536 7.15055 26.1536 7.66166C26.1536 8.17278 25.9789 8.60311 25.6293 8.95267C25.2798 9.30222 24.8494 9.477 24.3383 9.477C23.8272 9.477 23.3969 9.30222 23.0473 8.95267Z" fill="black"/>
</svg>
