<svg width="32" height="32" viewBox="0 0 32 32" fill="none" xmlns="http://www.w3.org/2000/svg">
<path d="M15.641 28.3333C13.9128 28.3333 12.2803 28.0004 10.7437 27.3347C9.20678 26.6689 7.86489 25.7624 6.718 24.6153C5.57089 23.4684 4.66445 22.1244 3.99867 20.5833C3.33289 19.0422 3 17.4033 3 15.6667C3 13.8896 3.33967 12.2304 4.019 10.6893C4.69812 9.14822 5.62445 7.80767 6.798 6.66767C7.97134 5.52745 9.34623 4.63111 10.9227 3.97867C12.4991 3.32622 14.1824 3 15.9727 3C17.6302 3 19.2051 3.27822 20.6973 3.83467C22.1898 4.39111 23.5005 5.165 24.6293 6.15633C25.7584 7.14789 26.658 8.325 27.328 9.68767C27.9982 11.0503 28.3333 12.5373 28.3333 14.1487C28.3333 16.3811 27.685 18.1547 26.3883 19.4693C25.0919 20.7838 23.3499 21.441 21.1623 21.441H18.7333C18.2547 21.441 17.8498 21.6131 17.5187 21.9573C17.1878 22.3013 17.0223 22.7013 17.0223 23.1573C17.0223 23.7344 17.1867 24.2264 17.5153 24.6333C17.844 25.0402 18.0083 25.5106 18.0083 26.0443C18.0083 26.7926 17.8001 27.3611 17.3837 27.75C16.9672 28.1389 16.3863 28.3333 15.641 28.3333ZM9.18034 15.9957C9.47723 15.6988 9.62567 15.3458 9.62567 14.9367C9.62567 14.5276 9.47723 14.1746 9.18034 13.8777C8.88345 13.581 8.53045 13.4327 8.12134 13.4327C7.71223 13.4327 7.35923 13.581 7.06234 13.8777C6.76545 14.1746 6.617 14.5276 6.617 14.9367C6.617 15.3458 6.76545 15.6988 7.06234 15.9957C7.35923 16.2926 7.71223 16.441 8.12134 16.441C8.53045 16.441 8.88345 16.2926 9.18034 15.9957ZM13.2793 10.5C13.5762 10.2031 13.7247 9.85011 13.7247 9.441C13.7247 9.03189 13.5762 8.67889 13.2793 8.382C12.9827 8.08511 12.6298 7.93667 12.2207 7.93667C11.8116 7.93667 11.4586 8.08511 11.1617 8.382C10.8648 8.67889 10.7163 9.03189 10.7163 9.441C10.7163 9.85011 10.8648 10.2031 11.1617 10.5C11.4586 10.7969 11.8116 10.9453 12.2207 10.9453C12.6298 10.9453 12.9827 10.7969 13.2793 10.5ZM20.1717 10.5C20.4686 10.2031 20.617 9.85011 20.617 9.441C20.617 9.03189 20.4686 8.67889 20.1717 8.382C19.8748 8.08511 19.5218 7.93667 19.1127 7.93667C18.7036 7.93667 18.3507 8.08511 18.054 8.382C17.7571 8.67889 17.6087 9.03189 17.6087 9.441C17.6087 9.85011 17.7571 10.2031 18.054 10.5C18.3507 10.7969 18.7036 10.9453 19.1127 10.9453C19.5218 10.9453 19.8748 10.7969 20.1717 10.5ZM24.348 15.9957C24.6447 15.6988 24.793 15.3458 24.793 14.9367C24.793 14.5276 24.6447 14.1746 24.348 13.8777C24.0511 13.581 23.6981 13.4327 23.289 13.4327C22.8799 13.4327 22.5269 13.581 22.23 13.8777C21.9331 14.1746 21.7847 14.5276 21.7847 14.9367C21.7847 15.3458 21.9331 15.6988 22.23 15.9957C22.5269 16.2926 22.8799 16.441 23.289 16.441C23.6981 16.441 24.0511 16.2926 24.348 15.9957ZM15.641 26.658C15.8763 26.658 16.0506 26.6069 16.1637 26.5047C16.2768 26.4024 16.3333 26.249 16.3333 26.0443C16.3333 25.7332 16.169 25.4213 15.8403 25.1087C15.5114 24.7958 15.347 24.2091 15.347 23.3487C15.347 22.3562 15.6752 21.5109 16.3317 20.8127C16.9881 20.1147 17.804 19.7657 18.7793 19.7657H21.1623C22.8399 19.7657 24.1752 19.2729 25.1683 18.2873C26.1614 17.3016 26.658 15.922 26.658 14.1487C26.658 11.3338 25.584 9.05122 23.436 7.301C21.2878 5.55056 18.8 4.67533 15.9727 4.67533C12.8164 4.67533 10.1446 5.738 7.957 7.86333C5.76923 9.98867 4.67534 12.5898 4.67534 15.6667C4.67534 18.7064 5.74578 21.2983 7.88667 23.4423C10.0278 25.5861 12.6126 26.658 15.641 26.658Z" fill="black"/>
</svg>
