<svg width="32" height="32" viewBox="0 0 32 32" fill="none" xmlns="http://www.w3.org/2000/svg">
<path d="M20.5084 12.5549C20.1606 12.2072 19.9868 11.7657 19.9868 11.2306C19.9868 10.6955 20.1606 10.2541 20.5084 9.90628C20.8564 9.5585 21.2979 9.38461 21.8328 9.38461C22.3679 9.38461 22.8093 9.5585 23.1571 9.90628C23.5051 10.2541 23.6791 10.6955 23.6791 11.2306C23.6791 11.7657 23.5051 12.2072 23.1571 12.5549C22.8093 12.9027 22.3679 13.0766 21.8328 13.0766C21.2979 13.0766 20.8564 12.9027 20.5084 12.5549ZM9.43176 12.5549C9.08376 12.2072 8.90976 11.7657 8.90976 11.2306C8.90976 10.6955 9.08376 10.2541 9.43176 9.90628C9.77953 9.5585 10.221 9.38461 10.7561 9.38461C11.291 9.38461 11.7324 9.5585 12.0804 9.90628C12.4282 10.2541 12.6021 10.6955 12.6021 11.2306C12.6021 11.7657 12.4282 12.2072 12.0804 12.5549C11.7324 12.9027 11.291 13.0766 10.7561 13.0766C10.221 13.0766 9.77953 12.9027 9.43176 12.5549ZM14.9701 15.9396C14.6223 15.5916 14.4484 15.1502 14.4484 14.6153C14.4484 14.0802 14.6223 13.6387 14.9701 13.2909C15.3179 12.9429 15.7593 12.7689 16.2944 12.7689C16.8295 12.7689 17.271 12.9429 17.6188 13.2909C17.9665 13.6387 18.1404 14.0802 18.1404 14.6153C18.1404 15.1502 17.9665 15.5916 17.6188 15.9396C17.271 16.2874 16.8295 16.4613 16.2944 16.4613C15.7593 16.4613 15.3179 16.2874 14.9701 15.9396ZM14.9701 9.17028C14.6223 8.8225 14.4484 8.38106 14.4484 7.84595C14.4484 7.31084 14.6223 6.86939 14.9701 6.52161C15.3179 6.17384 15.7593 5.99995 16.2944 5.99995C16.8295 5.99995 17.271 6.17384 17.6188 6.52161C17.9665 6.86939 18.1404 7.31084 18.1404 7.84595C18.1404 8.38106 17.9665 8.8225 17.6188 9.17028C17.271 9.51828 16.8295 9.69228 16.2944 9.69228C15.7593 9.69228 15.3179 9.51828 14.9701 9.17028ZM15.0841 25.5986C14.6739 25.5362 14.2748 25.4536 13.8868 25.3509V20.9356C13.8868 20.2092 14.1141 19.5895 14.5688 19.0766C15.0234 18.5639 15.5986 18.3076 16.2944 18.3076C16.9902 18.3076 17.5654 18.5639 18.0201 19.0766C18.4748 19.5895 18.7021 20.2092 18.7021 20.9356V25.3509C18.3141 25.4536 17.9152 25.5362 17.5054 25.5986C17.0954 25.6608 16.692 25.6919 16.2951 25.6919C15.898 25.6919 15.4943 25.6608 15.0841 25.5986ZM12.0408 24.7229C11.6459 24.5598 11.254 24.3763 10.8651 24.1723C10.4762 23.9683 10.11 23.7426 9.76642 23.4953C9.18687 23.1051 8.72864 22.5796 8.39176 21.9189C8.05509 21.2583 7.88676 20.5518 7.88676 19.7996C7.88676 19.2721 7.83331 18.7709 7.72642 18.2963C7.61976 17.8216 7.41642 17.3793 7.11642 16.9693C6.89842 16.7111 6.50542 16.3131 5.93742 15.7753C5.36964 15.2375 4.85009 14.7322 4.37876 14.2593C4.12609 13.9924 3.99976 13.6964 3.99976 13.3713C3.99976 13.0464 4.12709 12.7585 4.38176 12.5076C4.65687 12.2307 4.9462 12.0923 5.24976 12.0923C5.55309 12.0923 5.83798 12.2298 6.10442 12.5049L10.8434 16.9643C11.2312 17.3332 11.5276 17.7719 11.7328 18.2806C11.9381 18.7891 12.0408 19.3108 12.0408 19.8459V24.7229ZM20.5481 24.7229V19.8513C20.5481 19.3104 20.6721 18.7863 20.9201 18.2789C21.1679 17.7714 21.4858 17.3347 21.8738 16.9689L26.4928 12.5053C26.7392 12.2795 27.0319 12.1666 27.3708 12.1666C27.7096 12.1666 27.9928 12.2803 28.2201 12.5076C28.4748 12.7623 28.6021 13.0522 28.6021 13.3773C28.6021 13.7026 28.4759 13.9976 28.2234 14.2623C27.7528 14.7301 27.2314 15.2257 26.6594 15.7493C26.0874 16.2731 25.6914 16.6796 25.4714 16.9689C25.1705 17.3785 24.9671 17.8204 24.8611 18.2946C24.7551 18.7688 24.7021 19.2722 24.7021 19.8046C24.7021 20.5553 24.5359 21.2605 24.2034 21.9203C23.871 22.5801 23.4141 23.1073 22.8328 23.5019C22.491 23.7313 22.1242 23.9513 21.7324 24.1619C21.3406 24.3728 20.9459 24.5598 20.5481 24.7229Z" fill="black"/>
</svg>
