<svg width="32" height="32" viewBox="0 0 32 32" fill="none" xmlns="http://www.w3.org/2000/svg">
<path d="M14.523 23.9437L10.3147 19.7573L11.499 18.5727L14.523 21.5607L20.4017 15.6737L21.595 16.8717L14.523 23.9437ZM6.75233 28.6667C6.17922 28.6667 5.68833 28.4623 5.27966 28.0537C4.871 27.645 4.66666 27.1541 4.66666 26.581V7.76067C4.66666 7.18756 4.871 6.69678 5.27966 6.28834C5.68833 5.87967 6.17922 5.67534 6.75233 5.67534H9.00866V3.17967H10.812V5.67534H21.2393V3.17967H23V5.67534H25.2477C25.8208 5.67534 26.3117 5.87967 26.7203 6.28834C27.129 6.69678 27.3333 7.18756 27.3333 7.76067V26.581C27.3333 27.1541 27.129 27.645 26.7203 28.0537C26.3117 28.4623 25.8208 28.6667 25.2477 28.6667H6.75233ZM6.75233 26.9913H25.2477C25.3503 26.9913 25.4444 26.9487 25.53 26.8633C25.6153 26.7778 25.658 26.6837 25.658 26.581V13.5813H6.342V26.581C6.342 26.6837 6.38466 26.7778 6.47 26.8633C6.55555 26.9487 6.64966 26.9913 6.75233 26.9913ZM6.342 11.906H25.658V7.76067C25.658 7.65823 25.6153 7.56423 25.53 7.47867C25.4444 7.39312 25.3503 7.35034 25.2477 7.35034H6.75233C6.64966 7.35034 6.55555 7.39312 6.47 7.47867C6.38466 7.56423 6.342 7.65823 6.342 7.76067V11.906Z" fill="black"/>
</svg>
