<svg width="32" height="32" viewBox="0 0 32 32" fill="none" xmlns="http://www.w3.org/2000/svg">
<path d="M6.75229 28.6667C6.17918 28.6667 5.68829 28.4623 5.27963 28.0537C4.87096 27.645 4.66663 27.1541 4.66663 26.581V7.76067C4.66663 7.18756 4.87096 6.69678 5.27963 6.28833C5.68829 5.87967 6.17918 5.67533 6.75229 5.67533H9.00863V3.17967H10.812V5.67533H21.2393V3.17967H23V5.67533H25.2476C25.8207 5.67533 26.3116 5.87967 26.7203 6.28833C27.129 6.69678 27.3333 7.18756 27.3333 7.76067V26.581C27.3333 27.1541 27.129 27.645 26.7203 28.0537C26.3116 28.4623 25.8207 28.6667 25.2476 28.6667H6.75229ZM6.75229 26.9913H25.2476C25.3503 26.9913 25.4444 26.9487 25.53 26.8633C25.6153 26.7778 25.658 26.6837 25.658 26.581V13.5813H6.34196V26.581C6.34196 26.6837 6.38463 26.7778 6.46996 26.8633C6.55552 26.9487 6.64963 26.9913 6.75229 26.9913ZM6.34196 11.906H25.658V7.76067C25.658 7.65822 25.6153 7.56422 25.53 7.47867C25.4444 7.39311 25.3503 7.35033 25.2476 7.35033H6.75229C6.64963 7.35033 6.55552 7.39311 6.46996 7.47867C6.38463 7.56422 6.34196 7.65822 6.34196 7.76067V11.906Z" fill="black"/>
</svg>
