<svg width="32" height="32" viewBox="0 0 32 32" fill="none" xmlns="http://www.w3.org/2000/svg">
<path d="M13.154 24.0263L11.9607 22.833L15.154 19.6537L11.9607 16.4743L13.154 15.281L16.3333 18.4743L19.5127 15.281L20.706 16.4743L17.5127 19.6537L20.706 22.833L19.5127 24.0263L16.3333 20.833L13.154 24.0263ZM7.08567 28.487C6.51256 28.487 6.02167 28.2827 5.613 27.874C5.20433 27.4653 5 26.9744 5 26.4013V7.581C5 7.00789 5.20433 6.51711 5.613 6.10867C6.02167 5.7 6.51256 5.49567 7.08567 5.49567H9.342V3H11.1453V5.49567H21.5727V3H23.3333V5.49567H25.581C26.1541 5.49567 26.645 5.7 27.0537 6.10867C27.4623 6.51711 27.6667 7.00789 27.6667 7.581V26.4013C27.6667 26.9744 27.4623 27.4653 27.0537 27.874C26.645 28.2827 26.1541 28.487 25.581 28.487H7.08567ZM7.08567 26.8117H25.581C25.6837 26.8117 25.7778 26.769 25.8633 26.6837C25.9487 26.5981 25.9913 26.504 25.9913 26.4013V13.4017H6.67533V26.4013C6.67533 26.504 6.718 26.5981 6.80333 26.6837C6.88889 26.769 6.983 26.8117 7.08567 26.8117ZM6.67533 11.7263H25.9913V7.581C25.9913 7.47856 25.9487 7.38455 25.8633 7.299C25.7778 7.21344 25.6837 7.17067 25.581 7.17067H7.08567C6.983 7.17067 6.88889 7.21344 6.80333 7.299C6.718 7.38455 6.67533 7.47856 6.67533 7.581V11.7263Z" fill="black"/>
</svg>
