<svg width="32" height="32" viewBox="0 0 32 32" fill="none" xmlns="http://www.w3.org/2000/svg">
<path d="M25.9204 27.3333C23.4077 27.3333 20.8834 26.7491 18.3474 25.5807C15.8116 24.4122 13.4817 22.764 11.3577 20.636C9.23397 18.5078 7.58786 16.1778 6.41941 13.646C5.25097 11.1144 4.66675 8.59233 4.66675 6.07967C4.66675 5.67589 4.80008 5.33944 5.06675 5.07033C5.33341 4.80122 5.66675 4.66667 6.06675 4.66667H10.4154C10.7521 4.66667 11.0491 4.77656 11.3064 4.99633C11.5637 5.21589 11.7274 5.48722 11.7974 5.81033L12.5617 9.73333C12.6146 10.0973 12.6035 10.4101 12.5284 10.6717C12.4531 10.9332 12.318 11.1529 12.1231 11.3307L9.04375 14.3283C9.5393 15.2359 10.1055 16.0944 10.7424 16.904C11.3791 17.7133 12.0684 18.4863 12.8104 19.223C13.542 19.9548 14.3197 20.6343 15.1437 21.2617C15.9677 21.889 16.8575 22.4728 17.8131 23.013L20.8051 19.995C21.0137 19.7779 21.2664 19.6257 21.5631 19.5383C21.8595 19.4512 22.1676 19.4299 22.4874 19.4743L26.1897 20.2283C26.5264 20.3172 26.8012 20.489 27.0141 20.7437C27.227 20.9983 27.3334 21.2872 27.3334 21.6103V25.9333C27.3334 26.3333 27.1989 26.6667 26.9297 26.9333C26.6606 27.2 26.3242 27.3333 25.9204 27.3333ZM8.09741 12.436L10.4771 10.159C10.5197 10.1248 10.5475 10.0778 10.5604 10.018C10.5733 9.95822 10.5712 9.90267 10.5541 9.85133L9.97441 6.87167C9.9573 6.80344 9.92741 6.75222 9.88475 6.718C9.84208 6.68378 9.78653 6.66667 9.71808 6.66667H6.86675C6.81541 6.66667 6.77264 6.68378 6.73841 6.718C6.70441 6.75222 6.68741 6.795 6.68741 6.84633C6.75564 7.75744 6.90475 8.683 7.13475 9.623C7.36453 10.5632 7.68541 11.5009 8.09741 12.436ZM19.6974 23.959C20.5812 24.371 21.503 24.686 22.4627 24.904C23.4227 25.1218 24.3197 25.2512 25.1537 25.2923C25.2051 25.2923 25.2479 25.2752 25.2821 25.241C25.3163 25.2068 25.3334 25.164 25.3334 25.1127V22.3077C25.3334 22.2392 25.3163 22.1837 25.2821 22.141C25.2479 22.0983 25.1966 22.0684 25.1284 22.0513L22.3284 21.482C22.2771 21.4649 22.2322 21.4628 22.1937 21.4757C22.1553 21.4886 22.1146 21.5163 22.0717 21.559L19.6974 23.959Z" fill="black"/>
</svg>
