<svg width="32" height="32" viewBox="0 0 32 32" fill="none" xmlns="http://www.w3.org/2000/svg">
<path d="M9.43267 27.5127C8.86133 27.5127 8.37089 27.3079 7.96133 26.8983C7.55178 26.4888 7.347 25.9983 7.347 25.427V7.692H6V6.017H11.8017V5H20.1983V6.017H26V7.692H24.653V25.427C24.653 26.0001 24.4487 26.491 24.04 26.8997C23.6313 27.3083 23.1404 27.5127 22.5673 27.5127H9.43267ZM22.9777 7.692H9.02233V25.427C9.02233 25.5468 9.06222 25.6451 9.142 25.722C9.22178 25.7989 9.31867 25.8373 9.43267 25.8373H22.5673C22.67 25.8373 22.7641 25.7947 22.8497 25.7093C22.935 25.6238 22.9777 25.5297 22.9777 25.427V7.692ZM12.6513 23.0717H14.3263V10.4357H12.6513V23.0717ZM17.6737 23.0717H19.3487V10.4357H17.6737V23.0717Z" fill="black"/>
</svg>
