<svg width="32" height="32" viewBox="0 0 32 32" fill="none" xmlns="http://www.w3.org/2000/svg">
<path d="M15.9842 21.0469C16.1591 20.8724 16.2466 20.6554 16.2466 20.3961C16.2466 20.1367 16.1593 19.9195 15.9848 19.7446C15.8101 19.5696 15.593 19.4822 15.3337 19.4822C15.0743 19.4822 14.8572 19.5695 14.6825 19.7443C14.5076 19.919 14.4201 20.1361 14.4201 20.3954C14.4201 20.6546 14.5073 20.8716 14.6819 21.0466C14.8566 21.2215 15.0737 21.309 15.333 21.309C15.5924 21.309 15.8094 21.2216 15.9842 21.0469ZM14.5868 16.8005H16.1737V9.0207H14.5868V16.8005ZM15.3409 27.3333C13.6797 27.3333 12.1219 27.0184 10.6676 26.3885C9.21303 25.7586 7.94208 24.9003 6.85471 23.8135C5.76755 22.7266 4.90882 21.4558 4.2785 20.001C3.6484 18.5461 3.33334 16.9873 3.33334 15.3248C3.33334 13.6678 3.64829 12.1102 4.27819 10.6521C4.90808 9.19375 5.7664 7.92449 6.85313 6.84428C7.94008 5.76407 9.21092 4.90881 10.6657 4.27849C12.1206 3.64838 13.6793 3.33333 15.3419 3.33333C16.9989 3.33333 18.5565 3.64828 20.0146 4.27817C21.4729 4.90807 22.7422 5.76291 23.8224 6.8427C24.9026 7.92249 25.7579 9.19228 26.3882 10.6521C27.0183 12.1119 27.3333 13.6698 27.3333 15.3258C27.3333 16.987 27.0184 18.5448 26.3885 19.9991C25.7586 21.4536 24.9038 22.7232 23.824 23.8079C22.7442 24.8927 21.4744 25.7514 20.0146 26.3841C18.5548 27.0169 16.9969 27.3333 15.3409 27.3333Z" fill="black"/>
</svg>
