<svg width="32" height="32" viewBox="0 0 32 32" fill="none" xmlns="http://www.w3.org/2000/svg">
<path d="M4.67533 24.658V9.342V24.2477V24.0017V24.658ZM5.08567 26.3333C4.51256 26.3333 4.02167 26.129 3.613 25.7203C3.20433 25.3117 3 24.8208 3 24.2477V9.75233C3 9.17922 3.20433 8.68833 3.613 8.27967C4.02167 7.871 4.51256 7.66667 5.08567 7.66667H11V5.08567C11 4.52033 11.2043 4.03144 11.613 3.619C12.0217 3.20633 12.5126 3 13.0857 3H18.2477C18.8208 3 19.3117 3.20633 19.7203 3.619C20.129 4.03144 20.3333 4.52033 20.3333 5.08567V7.66667H26.2477C26.8208 7.66667 27.3117 7.871 27.7203 8.27967C28.129 8.68833 28.3333 9.17922 28.3333 9.75233V16.276C28.0751 16.088 27.8094 15.9186 27.5363 15.7677C27.263 15.6166 26.9702 15.4758 26.658 15.3453V9.75233C26.658 9.63256 26.6196 9.53422 26.5427 9.45733C26.4658 9.38044 26.3674 9.342 26.2477 9.342H5.08567C4.96589 9.342 4.86756 9.38044 4.79067 9.45733C4.71378 9.53422 4.67533 9.63256 4.67533 9.75233V24.2477C4.67533 24.3674 4.71378 24.4658 4.79067 24.5427C4.86756 24.6196 4.96589 24.658 5.08567 24.658H15.601C15.6681 24.9567 15.7491 25.2449 15.844 25.5227C15.9389 25.8004 16.0519 26.0707 16.183 26.3333H5.08567ZM12.6753 7.66667H18.658V5.08567C18.658 4.96589 18.6196 4.86755 18.5427 4.79067C18.4658 4.71378 18.3674 4.67533 18.2477 4.67533H13.0857C12.9659 4.67533 12.8676 4.71378 12.7907 4.79067C12.7138 4.86755 12.6753 4.96589 12.6753 5.08567V7.66667ZM19.506 27.1607C18.3551 26.0098 17.7797 24.6229 17.7797 23C17.7797 21.3771 18.3551 19.9902 19.506 18.8393C20.6569 17.6884 22.0438 17.113 23.6667 17.113C25.2896 17.113 26.6764 17.6884 27.8273 18.8393C28.9782 19.9902 29.5537 21.3771 29.5537 23C29.5537 24.6229 28.9782 26.0098 27.8273 27.1607C26.6764 28.3116 25.2896 28.887 23.6667 28.887C22.0438 28.887 20.6569 28.3116 19.506 27.1607ZM24.2067 22.858V18.9777H23V23.2687L25.993 26.1437L26.8103 25.3263L24.2067 22.858Z" fill="black"/>
</svg>
