<svg width="32" height="32" viewBox="0 0 32 32" fill="none" xmlns="http://www.w3.org/2000/svg">
<path d="M15 27L13.9967 26.0732C11.8268 24.0556 10.0345 22.319 8.61979 20.8634C7.20526 19.4077 6.08063 18.1157 5.24589 16.9874C4.41095 15.8591 3.82789 14.8402 3.49674 13.9306C3.16558 13.0213 3 12.1095 3 11.1953C3 9.4369 3.58421 7.96481 4.75263 6.77901C5.92105 5.593 7.36516 5 9.08495 5C10.2607 5 11.3511 5.30083 12.3559 5.90248C13.3607 6.50393 14.2421 7.37821 15 8.52533C15.8518 7.33057 16.7658 6.44432 17.742 5.86659C18.7182 5.28886 19.7759 5 20.9151 5C22.6348 5 24.0789 5.593 25.2474 6.77901C26.4158 7.96481 27 9.4369 27 11.1953C27 12.1095 26.8344 13.0213 26.5033 13.9306C26.1721 14.8402 25.5896 15.8582 24.7557 16.9848C23.9218 18.1112 22.7971 19.4031 21.3815 20.8605C19.9659 22.318 18.1732 24.0556 16.0033 26.0732L15 27ZM15 25.0723C17.0994 23.1218 18.8269 21.4502 20.1827 20.0573C21.5385 18.6643 22.6157 17.4455 23.4142 16.4009C24.2127 15.3564 24.7712 14.4276 25.0895 13.6146C25.4076 12.8019 25.5666 11.9969 25.5666 11.1998C25.5666 9.82768 25.1286 8.6938 24.2526 7.79815C23.3764 6.9025 22.2662 6.45468 20.922 6.45468C19.8454 6.45468 18.8556 6.78083 17.9526 7.43312C17.0499 8.08563 16.2616 9.04954 15.5877 10.3249H14.3927C13.7239 9.06279 12.9381 8.10219 12.0354 7.44305C11.1326 6.78414 10.1468 6.45468 9.078 6.45468C7.74179 6.45468 6.63358 6.9025 5.75337 7.79815C4.87337 8.6938 4.43337 9.83088 4.43337 11.2094C4.43337 12.0053 4.59305 12.8118 4.91242 13.6291C5.232 14.4461 5.78832 15.3795 6.58137 16.4294C7.37442 17.4794 8.45558 18.697 9.82484 20.0823C11.1939 21.4679 12.9189 23.1312 15 25.0723Z" fill="black"/>
</svg>
