<svg width="32" height="32" viewBox="0 0 32 32" fill="none" xmlns="http://www.w3.org/2000/svg">
<path d="M15 27L13.8663 25.9584C11.7185 23.9731 9.94568 22.2641 8.54779 20.8315C7.14989 19.3987 6.03926 18.1263 5.21589 17.0144C4.39232 15.9022 3.81716 14.8951 3.49042 13.9931C3.16347 13.0911 3 12.1817 3 11.2649C3 9.48655 3.59095 7.9978 4.77284 6.79868C5.95474 5.59956 7.41779 5 9.162 5C10.3134 5 11.3876 5.28772 12.3846 5.86314C13.3817 6.43835 14.2535 7.27126 15 8.36187C15.8093 7.23965 16.7032 6.39873 17.6817 5.83911C18.6604 5.27971 19.7125 5 20.838 5C22.5822 5 24.0453 5.59956 25.2272 6.79868C26.4091 7.9978 27 9.48655 27 11.2649C27 12.1817 26.8365 13.0911 26.5096 13.9931C26.1828 14.8951 25.6077 15.9022 24.7841 17.0144C23.9607 18.1263 22.8507 19.3987 21.4541 20.8315C20.0577 22.2641 18.2842 23.9731 16.1337 25.9584L15 27Z" fill="black"/>
</svg>
