<svg width="32" height="32" viewBox="0 0 32 32" fill="none" xmlns="http://www.w3.org/2000/svg">
<path fill-rule="evenodd" clip-rule="evenodd" d="M29.8133 13.3333C29.9867 14.2933 30.08 15.2933 30.08 16.3333C30.08 20.8 28.48 24.56 25.7067 27.12L20.9467 23.4267C22.5067 22.3867 23.5467 20.84 23.8933 19.0133H16V13.3333H29.8133Z" fill="#4285F4"/>
<path fill-rule="evenodd" clip-rule="evenodd" d="M7.76925 18.8L6.70667 19.6133L2.90667 22.5733V22.5867C5.32 27.3733 10.2667 30.6667 16 30.6667C19.96 30.6667 23.28 29.36 25.7067 27.12L20.9467 23.4267C19.64 24.3067 17.9733 24.84 16 24.84C12.1867 24.84 8.94667 22.2667 7.78667 18.8H7.76925Z" fill="#34A853"/>
<path fill-rule="evenodd" clip-rule="evenodd" d="M7.76924 18.8L7.78667 18.7867C7.49333 17.9067 7.32 16.9733 7.32 16C7.32 15.0267 7.49333 14.0933 7.78667 13.2133L2.90667 9.42667C1.90667 11.4 1.33333 13.6267 1.33333 16C1.33333 18.3733 1.90667 20.6 2.90667 22.5733L6.70667 19.6133L7.76924 18.8Z" fill="#FBBC05"/>
<path fill-rule="evenodd" clip-rule="evenodd" d="M16 7.17333C18.16 7.17333 20.08 7.92 21.6133 9.35999L25.8133 5.15999C23.2667 2.78666 19.96 1.33333 16 1.33333C10.2667 1.33333 5.32 4.62666 2.90667 9.42666L7.78667 13.2133C8.94667 9.74666 12.1867 7.17333 16 7.17333Z" fill="#EA4335"/>
</svg>
