<svg width="32" height="32" viewBox="0 0 32 32" fill="none" xmlns="http://www.w3.org/2000/svg">
<path d="M16.9074 23.032C17.132 22.804 17.2444 22.5296 17.2444 22.2087C17.2444 21.8878 17.1318 21.6136 16.9067 21.386C16.6814 21.1582 16.4068 21.0443 16.083 21.0443C15.7593 21.0443 15.4836 21.1584 15.256 21.3867C15.0285 21.6147 14.9147 21.8891 14.9147 22.21C14.9147 22.5309 15.0287 22.8052 15.2567 23.033C15.4849 23.2606 15.7608 23.3743 16.0844 23.3743C16.4082 23.3743 16.6825 23.2602 16.9074 23.032ZM15.154 18.7263H16.7914C16.8029 18.1452 16.8917 17.6443 17.0577 17.2237C17.2237 16.8028 17.6398 16.2969 18.306 15.706C18.9436 15.1198 19.4078 14.5701 19.6987 14.057C19.9896 13.5439 20.135 12.9657 20.135 12.3223C20.135 11.2077 19.758 10.3172 19.004 9.651C18.2498 8.98456 17.3049 8.65133 16.1694 8.65133C15.1409 8.65133 14.2516 8.919 13.5014 9.45433C12.7512 9.98967 12.204 10.6644 11.86 11.4787L13.3607 12.0667C13.5836 11.5213 13.9164 11.0682 14.359 10.7073C14.8017 10.3462 15.38 10.1657 16.094 10.1657C16.9003 10.1657 17.5189 10.3861 17.95 10.827C18.3812 11.2677 18.5967 11.792 18.5967 12.4C18.5967 12.8713 18.463 13.307 18.1957 13.707C17.9286 14.107 17.5574 14.5123 17.082 14.923C16.3574 15.5714 15.8548 16.1616 15.5744 16.6933C15.2942 17.2249 15.154 17.9026 15.154 18.7263ZM16.0024 28.6667C14.2595 28.6667 12.6187 28.3342 11.08 27.6693C9.54137 27.0044 8.19815 26.0984 7.05037 24.9513C5.90282 23.804 4.99637 22.4613 4.33104 20.9233C3.66593 19.3853 3.33337 17.745 3.33337 16.0023C3.33337 14.2503 3.66582 12.6036 4.33071 11.062C4.9956 9.52044 5.9016 8.17955 7.04871 7.03933C8.19604 5.89911 9.53871 4.99633 11.0767 4.331C12.6147 3.66589 14.255 3.33333 15.9977 3.33333C17.7497 3.33333 19.3965 3.66578 20.938 4.33066C22.4796 4.99555 23.8205 5.89789 24.9607 7.03767C26.1009 8.17744 27.0037 9.51778 27.669 11.0587C28.3342 12.5996 28.6667 14.2459 28.6667 15.9977C28.6667 17.7406 28.3343 19.3813 27.6694 20.92C27.0045 22.4587 26.1022 23.8019 24.9624 24.9497C23.8226 26.0972 22.4823 27.0037 20.9414 27.669C19.4005 28.3341 17.7542 28.6667 16.0024 28.6667ZM16 26.9913C19.062 26.9913 21.6595 25.9227 23.7924 23.7853C25.925 21.648 26.9914 19.0529 26.9914 16C26.9914 12.938 25.925 10.3406 23.7924 8.20766C21.6595 6.075 19.062 5.00867 16 5.00867C12.9472 5.00867 10.352 6.075 8.21471 8.20766C6.07737 10.3406 5.00871 12.938 5.00871 16C5.00871 19.0529 6.07737 21.648 8.21471 23.7853C10.352 25.9227 12.9472 26.9913 16 26.9913Z" fill="black"/>
</svg>
