<svg width="32" height="32" viewBox="0 0 32 32" fill="none" xmlns="http://www.w3.org/2000/svg">
<path d="M14.8787 22H16.5537V14.3333H14.8787V22ZM16.3497 11.879C16.537 11.6981 16.6307 11.4718 16.6307 11.2C16.6307 10.9213 16.5381 10.6887 16.353 10.502C16.1681 10.3156 15.9394 10.2223 15.667 10.2223C15.389 10.2223 15.1588 10.3156 14.9763 10.502C14.7939 10.6887 14.7027 10.9213 14.7027 11.2C14.7027 11.4718 14.7962 11.6981 14.9833 11.879C15.1707 12.0599 15.3983 12.1503 15.6663 12.1503C15.9343 12.1503 16.1621 12.0599 16.3497 11.879ZM15.6747 28.3333C13.9211 28.3333 12.2768 28.0009 10.7417 27.336C9.20633 26.6711 7.86478 25.7651 6.717 24.618C5.56944 23.4707 4.663 22.1292 3.99767 20.5937C3.33256 19.0579 3 17.4126 3 15.6577C3 13.9086 3.33244 12.2644 3.99733 10.7253C4.66222 9.186 5.56822 7.84622 6.71533 6.706C7.86267 5.56577 9.20411 4.663 10.7397 3.99766C12.2754 3.33255 13.9208 3 15.6757 3C17.4248 3 19.0689 3.33244 20.608 3.99733C22.1473 4.66222 23.4871 5.56455 24.6273 6.70433C25.7676 7.84411 26.6703 9.18444 27.3357 10.7253C28.0008 12.2662 28.3333 13.9107 28.3333 15.6587C28.3333 17.4122 28.0009 19.0566 27.336 20.5917C26.6711 22.127 25.7688 23.4671 24.629 24.612C23.4892 25.7571 22.1489 26.6636 20.608 27.3313C19.0671 27.9993 17.4227 28.3333 15.6747 28.3333ZM15.6777 26.658C18.7323 26.658 21.3261 25.5893 23.459 23.452C25.5917 21.3147 26.658 18.7159 26.658 15.6557C26.658 12.601 25.593 10.0072 23.463 7.87433C21.333 5.74166 18.7342 4.67533 15.6667 4.67533C12.6138 4.67533 10.0187 5.74033 7.88133 7.87033C5.744 10.0003 4.67533 12.5991 4.67533 15.6667C4.67533 18.7196 5.744 21.3147 7.88133 23.452C10.0187 25.5893 12.6174 26.658 15.6777 26.658Z" fill="black"/>
</svg>
