<svg width="32" height="32" viewBox="0 0 32 32" fill="none" xmlns="http://www.w3.org/2000/svg">
<path d="M20.3073 13.865C20.7684 13.865 21.1573 13.7057 21.474 13.387C21.7904 13.0686 21.9487 12.6787 21.9487 12.2173C21.9487 11.7562 21.7894 11.3674 21.471 11.051C21.1523 10.7343 20.7624 10.576 20.3013 10.576C19.84 10.576 19.4511 10.7353 19.1347 11.054C18.8182 11.3724 18.66 11.7623 18.66 12.2237C18.66 12.6848 18.8192 13.0736 19.1377 13.39C19.4561 13.7067 19.846 13.865 20.3073 13.865ZM11.032 13.865C11.4933 13.865 11.8822 13.7057 12.1987 13.387C12.5151 13.0686 12.6733 12.6787 12.6733 12.2173C12.6733 11.7562 12.5141 11.3674 12.1957 11.051C11.8772 10.7343 11.4873 10.576 11.026 10.576C10.5649 10.576 10.176 10.7353 9.85934 11.054C9.54289 11.3724 9.38467 11.7623 9.38467 12.2237C9.38467 12.6848 9.54389 13.0736 9.86234 13.39C10.181 13.7067 10.5709 13.865 11.032 13.865ZM19.4503 21.4533C20.5997 20.7049 21.4479 19.7024 21.995 18.446H20.465C19.9612 19.3013 19.285 19.9679 18.4363 20.4457C17.5877 20.9234 16.669 21.1623 15.6803 21.1623C14.6826 21.1623 13.7571 20.9258 12.904 20.4527C12.0507 19.9793 11.3796 19.3104 10.8907 18.446H9.33834C9.89456 19.7024 10.745 20.7049 11.8897 21.4533C13.0346 22.2018 14.2936 22.576 15.6667 22.576C17.0398 22.576 18.301 22.2018 19.4503 21.4533ZM10.7287 27.336C9.18711 26.6711 7.84623 25.7688 6.706 24.629C5.56578 23.4892 4.663 22.1489 3.99767 20.608C3.33256 19.0671 3 17.4208 3 15.669C3 13.917 3.33245 12.2702 3.99734 10.7287C4.66223 9.18711 5.56456 7.84622 6.70434 6.706C7.84412 5.56578 9.18445 4.663 10.7253 3.99767C12.2662 3.33256 13.9126 3 15.6643 3C17.4163 3 19.0631 3.33244 20.6047 3.99733C22.1462 4.66222 23.4871 5.56456 24.6273 6.70433C25.7676 7.84411 26.6703 9.18444 27.3357 10.7253C28.0008 12.2662 28.3333 13.9126 28.3333 15.6643C28.3333 17.4163 28.0009 19.0631 27.336 20.6047C26.6711 22.1462 25.7688 23.4871 24.629 24.6273C23.4892 25.7676 22.1489 26.6703 20.608 27.3357C19.0671 28.0008 17.4208 28.3333 15.669 28.3333C13.917 28.3333 12.2702 28.0009 10.7287 27.336ZM23.459 23.459C25.5917 21.3261 26.658 18.7287 26.658 15.6667C26.658 12.6047 25.5917 10.0072 23.459 7.87433C21.3261 5.74167 18.7287 4.67533 15.6667 4.67533C12.6047 4.67533 10.0072 5.74167 7.87434 7.87433C5.74167 10.0072 4.67534 12.6047 4.67534 15.6667C4.67534 18.7287 5.74167 21.3261 7.87434 23.459C10.0072 25.5917 12.6047 26.658 15.6667 26.658C18.7287 26.658 21.3261 25.5917 23.459 23.459Z" fill="black"/>
</svg>
