<svg width="32" height="32" viewBox="0 0 32 32" fill="none" xmlns="http://www.w3.org/2000/svg">
<path d="M12.6517 19.3203C13.515 19.3203 14.2448 19.0238 14.841 18.4307L19.762 13.51C20.3564 12.9153 20.6537 12.1862 20.6537 11.3227C20.6537 10.4593 20.3571 9.72955 19.764 9.13333C19.1678 8.54022 18.438 8.24366 17.5747 8.24366C16.7111 8.24366 15.9828 8.54022 15.3897 9.13333C14.6359 8.86155 13.8889 8.79922 13.1487 8.94633C12.4084 9.09322 11.782 9.42311 11.2693 9.936C10.7564 10.4487 10.4265 11.0751 10.2797 11.8153C10.1325 12.5556 10.1949 13.3026 10.4667 14.0563C9.87355 14.6526 9.57699 15.3823 9.57699 16.2457C9.57699 17.1092 9.87355 17.8376 10.4667 18.4307C11.0598 19.0238 11.7881 19.3203 12.6517 19.3203ZM8.66666 28.6667V23.2923C7.39999 22.1368 6.41666 20.8124 5.71666 19.3193C5.01666 17.826 4.66666 16.272 4.66666 14.6573C4.66666 11.5118 5.76855 8.83811 7.97232 6.63633C10.1759 4.43433 12.8518 3.33333 16 3.33333C18.5898 3.33333 20.9055 4.10733 22.9473 5.65533C24.9893 7.20311 26.3154 9.21122 26.9257 11.6797L28.533 18.0443C28.6181 18.3732 28.5581 18.6702 28.353 18.9353C28.1479 19.2007 27.8701 19.3333 27.5197 19.3333H24.6667V23.9143C24.6667 24.4834 24.4613 24.9733 24.0507 25.384C23.64 25.7947 23.1501 26 22.581 26H19.3333V28.6667H17.658V24.3247H22.581C22.7008 24.3247 22.7991 24.2862 22.876 24.2093C22.9529 24.1324 22.9913 24.0341 22.9913 23.9143V17.658H26.6907L25.311 12.0813C24.7908 9.98444 23.66 8.28144 21.9187 6.97233C20.1775 5.66322 18.2047 5.00866 16 5.00866C13.322 5.00866 11.0428 5.93899 9.16232 7.79966C7.2821 9.66033 6.34199 11.928 6.34199 14.6027C6.34199 15.9878 6.62488 17.3002 7.19066 18.54C7.75643 19.78 8.55555 20.8802 9.58799 21.8407L10.342 22.5487V28.6667H8.66666Z" fill="black"/>
</svg>
