<svg width="32" height="32" viewBox="0 0 32 32" fill="none" xmlns="http://www.w3.org/2000/svg">
<path d="M6.054 13.947C5.79578 13.6892 5.66667 13.3738 5.66667 13.0007C5.66667 12.6276 5.79556 12.312 6.05333 12.054C6.31089 11.7958 6.62622 11.6667 6.99933 11.6667C7.37244 11.6667 7.68811 11.7954 7.94633 12.053C8.20433 12.3108 8.33333 12.6262 8.33333 12.9993C8.33333 13.3724 8.20456 13.688 7.947 13.946C7.68922 14.2042 7.37378 14.3333 7.00067 14.3333C6.62756 14.3333 6.312 14.2046 6.054 13.947ZM24.0537 13.947C23.7957 13.6892 23.6667 13.3738 23.6667 13.0007C23.6667 12.6276 23.7954 12.312 24.053 12.054C24.3108 11.7958 24.6262 11.6667 24.9993 11.6667C25.3724 11.6667 25.688 11.7954 25.946 12.053C26.2042 12.3108 26.3333 12.6262 26.3333 12.9993C26.3333 13.3724 26.2044 13.688 25.9467 13.946C25.6891 14.2042 25.3738 14.3333 25.0007 14.3333C24.6276 14.3333 24.3119 14.2046 24.0537 13.947ZM5.33333 28.6667H3.33333V24H8.66667C7.28556 24 6.107 23.512 5.131 22.536C4.15478 21.5598 3.66667 20.3811 3.66667 19H5.66667C5.66667 19.8251 5.96044 20.5313 6.548 21.1187C7.13556 21.7062 7.84178 22 8.66667 22V17.3333H12.2667L11 12.1667C10.4889 10.1222 9.39444 8.47222 7.71667 7.21667C6.03889 5.96111 4.13333 5.33333 2 5.33333V3.33333C4.588 3.33333 6.90122 4.09956 8.93967 5.632C10.9781 7.16444 12.3068 9.18033 12.9257 11.6797L14.4837 17.8323C14.5834 18.2126 14.5107 18.5578 14.2653 18.868C14.02 19.1782 13.7008 19.3333 13.3077 19.3333H10.6667V23.5897C10.6667 24.2526 10.4307 24.82 9.95867 25.292C9.48667 25.764 8.91922 26 8.25633 26H5.33333V28.6667ZM28.6667 28.6667H26.6667V26H23.7437C23.0808 26 22.5133 25.764 22.0413 25.292C21.5693 24.82 21.3333 24.2526 21.3333 23.5897V19.3333H18.6923C18.2992 19.3333 17.98 19.1748 17.7347 18.8577C17.4893 18.5406 17.4248 18.1854 17.541 17.7923L19.0743 11.6797C19.7341 9.23522 21.0661 7.233 23.0703 5.673C25.0748 4.11322 27.3847 3.33333 30 3.33333V5.33333C27.8802 5.33333 25.9814 5.96455 24.3037 7.227C22.6259 8.48944 21.5314 10.136 21.0203 12.1667L19.7333 17.3333H23.3333V22C24.1607 21.9916 24.8674 21.6962 25.4537 21.114C26.0401 20.532 26.3333 19.8273 26.3333 19H28.3333C28.3333 20.3811 27.8452 21.5576 26.869 22.5293C25.893 23.5013 24.7144 23.9916 23.3333 24H28.6667V28.6667Z" fill="black"/>
</svg>
