<svg width="32" height="32" viewBox="0 0 32 32" fill="none" xmlns="http://www.w3.org/2000/svg">
<path d="M10.7227 27.3347C9.18156 26.6689 7.83844 25.7648 6.69333 24.6223C5.548 23.4799 4.64611 22.1358 3.98767 20.59C3.32922 19.0444 3 17.3917 3 15.6317C3 13.8714 3.32922 12.2243 3.98767 10.6903C4.64611 9.15611 5.548 7.81778 6.69333 6.67533C7.83844 5.53289 9.18156 4.63467 10.7227 3.98067C12.2638 3.32689 13.9129 3 15.67 3C17.4273 3 19.0753 3.32689 20.614 3.98067C22.1529 4.63467 23.4949 5.53289 24.64 6.67533C25.7853 7.81778 26.6872 9.15611 27.3457 10.6903C28.0041 12.2243 28.3333 13.8714 28.3333 15.6317C28.3333 17.3917 28.0041 19.0444 27.3457 20.59C26.6872 22.1358 25.7853 23.4799 24.64 24.6223C23.4949 25.7648 22.1529 26.6689 20.614 27.3347C19.0753 28.0004 17.4273 28.3333 15.67 28.3333C13.9129 28.3333 12.2638 28.0004 10.7227 27.3347ZM15.6667 26.693C16.4462 25.7963 17.0918 24.8462 17.6033 23.8427C18.1151 22.8393 18.5337 21.6878 18.859 20.388H12.488C12.8156 21.6856 13.2338 22.8414 13.7427 23.8557C14.2516 24.8699 14.8929 25.8157 15.6667 26.693ZM13.3957 26.3897C12.8094 25.6052 12.2881 24.6986 11.8317 23.6697C11.3752 22.6408 11.0177 21.5469 10.759 20.388H5.71267C6.51622 21.9982 7.54567 23.2931 8.801 24.2727C10.0561 25.2522 11.5877 25.9579 13.3957 26.3897ZM17.9597 26.376C19.6208 26.0102 21.1188 25.3068 22.4537 24.2657C23.7888 23.2248 24.8444 21.9322 25.6207 20.388H20.588C20.2776 21.5522 19.8978 22.6458 19.4487 23.6687C18.9996 24.6918 18.5032 25.5942 17.9597 26.376ZM5.10867 18.713H10.4393C10.3556 18.1419 10.2994 17.6063 10.271 17.1063C10.2426 16.6063 10.2283 16.1144 10.2283 15.6307C10.2283 15.1104 10.2448 14.6109 10.2777 14.132C10.3108 13.6531 10.3692 13.1447 10.453 12.6067H5.10867C4.95644 13.102 4.84611 13.5918 4.77767 14.076C4.70944 14.5604 4.67533 15.0787 4.67533 15.6307C4.67533 16.1887 4.70944 16.7167 4.77767 17.2147C4.84611 17.7127 4.95644 18.2121 5.10867 18.713ZM12.142 18.713H19.205C19.2979 18.0999 19.3609 17.5581 19.394 17.0877C19.4271 16.6172 19.4437 16.1316 19.4437 15.6307C19.4437 15.1447 19.4271 14.6724 19.394 14.214C19.3609 13.7556 19.2979 13.2198 19.205 12.6067H12.142C12.0491 13.2198 11.9861 13.7556 11.953 14.214C11.9199 14.6724 11.9033 15.1447 11.9033 15.6307C11.9033 16.1316 11.9199 16.6172 11.953 17.0877C11.9861 17.5581 12.0491 18.0999 12.142 18.713ZM20.8803 18.713H26.2247C26.3769 18.2121 26.4872 17.7127 26.5557 17.2147C26.6239 16.7167 26.658 16.1887 26.658 15.6307C26.658 15.0787 26.6239 14.5604 26.5557 14.076C26.4872 13.5918 26.3769 13.102 26.2247 12.6067H20.9027C20.9807 13.262 21.0362 13.8231 21.0693 14.29C21.1022 14.7571 21.1187 15.204 21.1187 15.6307C21.1187 16.1236 21.0999 16.6094 21.0623 17.0883C21.0248 17.5674 20.9641 18.109 20.8803 18.713ZM20.5743 10.9317H25.6207C24.8598 9.32811 23.8226 8.013 22.509 6.98633C21.1952 5.95945 19.6714 5.27422 17.9377 4.93067C18.5239 5.74889 19.0387 6.66 19.482 7.664C19.9253 8.668 20.2894 9.75722 20.5743 10.9317ZM12.488 10.9317H18.8813C18.5809 9.72367 18.1584 8.59222 17.614 7.53733C17.0696 6.48222 16.4204 5.52567 15.6667 4.66767C14.9458 5.40833 14.3342 6.27533 13.832 7.26867C13.3298 8.26222 12.8818 9.48322 12.488 10.9317ZM5.71267 10.9317H10.7727C11.0393 9.78456 11.3907 8.71278 11.8267 7.71633C12.2624 6.71967 12.7781 5.79567 13.3737 4.94433C11.6368 5.29367 10.1204 5.97645 8.82467 6.99267C7.52911 8.00889 6.49178 9.32189 5.71267 10.9317Z" fill="black"/>
</svg>
