<svg width="32" height="32" viewBox="0 0 32 32" fill="none" xmlns="http://www.w3.org/2000/svg">
<path d="M17.655 14.668C18.093 14.23 18.312 13.6997 18.312 13.077C18.312 12.4541 18.093 11.9238 17.655 11.486C17.2172 11.048 16.6869 10.829 16.064 10.829C15.4411 10.829 14.9108 11.048 14.473 11.486C14.035 11.9238 13.816 12.4541 13.816 13.077C13.816 13.6997 14.035 14.23 14.473 14.668C14.9108 15.1058 15.4411 15.3247 16.064 15.3247C16.6869 15.3247 17.2172 15.1058 17.655 14.668ZM16.064 26.1223C18.79 23.6881 20.8697 21.3626 22.303 19.1457C23.7363 16.929 24.453 14.9907 24.453 13.3307C24.453 10.8009 23.6491 8.72367 22.0413 7.099C20.4336 5.47455 18.4411 4.66233 16.064 4.66233C13.6869 4.66233 11.6944 5.47455 10.0867 7.099C8.47889 8.72367 7.675 10.8009 7.675 13.3307C7.675 14.9907 8.4 16.929 9.85 19.1457C11.2998 21.3626 13.3711 23.6881 16.064 26.1223ZM16.064 28.346C12.7084 25.4384 10.1922 22.7326 8.51533 20.2283C6.83844 17.7239 6 15.4247 6 13.3307C6 10.2538 6.99522 7.76278 8.98567 5.85767C10.9763 3.95256 13.3358 3 16.064 3C18.7922 3 21.1517 3.95256 23.1423 5.85767C25.1328 7.76278 26.128 10.2538 26.128 13.3307C26.128 15.4247 25.2896 17.7239 23.6127 20.2283C21.9358 22.7326 19.4196 25.4384 16.064 28.346Z" fill="black"/>
</svg>
