<svg width="32" height="32" viewBox="0 0 32 32" fill="none" xmlns="http://www.w3.org/2000/svg">
<path d="M20.1984 27.282L11.8241 24.3333L6.19841 26.54C5.83819 26.7071 5.49286 26.6838 5.16241 26.47C4.83197 26.2564 4.66675 25.9464 4.66675 25.54V8.089C4.66675 7.82567 4.7373 7.58933 4.87841 7.38C5.0193 7.17067 5.21253 7.01889 5.45808 6.92467L11.8241 4.718L20.1984 7.64433L25.8017 5.44633C26.162 5.28833 26.5073 5.30755 26.8377 5.504C27.1682 5.70022 27.3334 5.99722 27.3334 6.395V24.0617C27.3334 24.3094 27.2565 24.5253 27.1027 24.7093C26.9487 24.8933 26.7521 25.0278 26.5127 25.1127L20.1984 27.282ZM19.2891 25.2103V9.01033L12.7111 6.75033V22.9503L19.2891 25.2103ZM20.9641 25.2103L25.6581 23.6617V7.23933L20.9641 9.01033V25.2103ZM6.34208 24.7383L11.0361 22.9503V6.75033L6.34208 8.32467V24.7383Z" fill="black"/>
</svg>
