<svg width="32" height="32" viewBox="0 0 32 32" fill="none" xmlns="http://www.w3.org/2000/svg">
<path d="M15.6667 28.3333L12.406 23.383H5.08567C4.51656 23.383 4.02667 23.1777 3.616 22.767C3.20533 22.3563 3 21.8664 3 21.2973V5.08567C3 4.51656 3.20533 4.02667 3.616 3.616C4.02667 3.20533 4.51656 3 5.08567 3H26.2477C26.8168 3 27.3067 3.20533 27.7173 3.616C28.128 4.02667 28.3333 4.51656 28.3333 5.08567V21.2973C28.3333 21.8664 28.128 22.3563 27.7173 22.767C27.3067 23.1777 26.8168 23.383 26.2477 23.383H18.9273L15.6667 28.3333ZM15.6667 25.312L18.029 21.7077H26.2477C26.3674 21.7077 26.4658 21.6678 26.5427 21.588C26.6196 21.5082 26.658 21.4113 26.658 21.2973V5.08567C26.658 4.96589 26.6196 4.86755 26.5427 4.79067C26.4658 4.71378 26.3674 4.67533 26.2477 4.67533H5.08567C4.96589 4.67533 4.86756 4.71378 4.79067 4.79067C4.71378 4.86755 4.67533 4.96589 4.67533 5.08567V21.2973C4.67533 21.4113 4.71378 21.5082 4.79067 21.588C4.86756 21.6678 4.96589 21.7077 5.08567 21.7077H13.3043L15.6667 25.312Z" fill="black"/>
</svg>
