<svg width="32" height="32" viewBox="0 0 32 32" fill="none" xmlns="http://www.w3.org/2000/svg">
<path fill-rule="evenodd" clip-rule="evenodd" d="M14.2963 27.8817C14.7672 28.3537 15.3343 28.5897 15.9977 28.5897C16.6612 28.5897 17.2292 28.3542 17.7017 27.8833C18.1741 27.4124 18.4103 26.8444 18.4103 26.1793H13.5897C13.5897 26.8422 13.8252 27.4097 14.2963 27.8817ZM6 23.171V24.846H26V23.171H23.5897V14.5077C23.3088 14.5346 23.0276 14.536 22.746 14.512C22.4647 14.488 22.1876 14.4498 21.9147 14.3973V23.171H10.0853V12.8343C10.0853 11.1972 10.6619 9.80211 11.815 8.649C12.9679 7.49611 14.3629 6.91967 16 6.91967C16.1393 6.91967 16.2691 6.92389 16.3893 6.93233C16.5098 6.941 16.6339 6.959 16.7617 6.98633C16.8237 6.547 16.9293 6.12533 17.0787 5.72133C17.228 5.31733 17.4194 4.92989 17.653 4.559V4.50433C17.6108 4.08344 17.4348 3.72755 17.125 3.43667C16.8152 3.14555 16.4397 3 15.9983 3C15.5359 3 15.1428 3.162 14.819 3.486C14.4952 3.81022 14.3333 4.20378 14.3333 4.66667V5.394C12.5836 5.74844 11.1589 6.62678 10.0593 8.029C8.96 9.43122 8.41033 11.033 8.41033 12.8343V23.171H6Z" fill="black"/>
<path d="M20.5133 10.5887C19.8327 9.90689 19.4923 9.07911 19.4923 8.10533C19.4923 7.13133 19.8331 6.30411 20.5147 5.62367C21.1964 4.943 22.0242 4.60267 22.998 4.60267C23.972 4.60267 24.7993 4.94356 25.48 5.62533C26.1604 6.30689 26.5007 7.13456 26.5007 8.10833C26.5007 9.08233 26.1599 9.90967 25.4783 10.5903C24.7966 11.2708 23.9688 11.611 22.995 11.611C22.021 11.611 21.1938 11.2702 20.5133 10.5887Z" fill="#E6911A"/>
</svg>
