<svg width="32" height="32" viewBox="0 0 32 32" fill="none" xmlns="http://www.w3.org/2000/svg">
<path d="M6 25.1793V23.5043H8.41033V13.1677C8.41033 11.3663 8.96 9.76455 10.0593 8.36233C11.1589 6.96011 12.5836 6.08178 14.3333 5.72733V5C14.3333 4.53711 14.4952 4.14355 14.819 3.81933C15.1428 3.49533 15.5359 3.33333 15.9983 3.33333C16.461 3.33333 16.8547 3.49533 17.1793 3.81933C17.5042 4.14355 17.6667 4.53711 17.6667 5V5.72733C19.4164 6.08178 20.8411 6.96011 21.9407 8.36233C23.04 9.76455 23.5897 11.3663 23.5897 13.1677V23.5043H26V25.1793H6ZM15.9977 28.923C15.3343 28.923 14.7672 28.687 14.2963 28.215C13.8252 27.743 13.5897 27.1756 13.5897 26.5127H18.4103C18.4103 27.1778 18.1741 27.7458 17.7017 28.2167C17.2292 28.6876 16.6612 28.923 15.9977 28.923ZM10.0853 23.5043H21.9147V13.1677C21.9147 11.5306 21.3381 10.1354 20.185 8.98233C19.0321 7.82944 17.6371 7.253 16 7.253C14.3629 7.253 12.9679 7.82944 11.815 8.98233C10.6619 10.1354 10.0853 11.5306 10.0853 13.1677V23.5043Z" fill="black"/>
</svg>
