<svg width="32" height="32" viewBox="0 0 32 32" fill="none" xmlns="http://www.w3.org/2000/svg">
<path d="M7.08567 28.5947C6.51256 28.5947 6.02167 28.3903 5.613 27.9817C5.20433 27.573 5 27.0821 5 26.509V8.01367C5 7.44056 5.20433 6.94967 5.613 6.541C6.02167 6.13233 6.51256 5.928 7.08567 5.928H13.6547C13.5864 5.17022 13.8181 4.49278 14.3497 3.89567C14.8812 3.29856 15.5424 3 16.3333 3C17.1242 3 17.7854 3.29856 18.317 3.89567C18.8486 4.49278 19.0802 5.17022 19.012 5.928H25.581C26.1541 5.928 26.645 6.13233 27.0537 6.541C27.4623 6.94967 27.6667 7.44056 27.6667 8.01367V26.509C27.6667 27.0821 27.4623 27.573 27.0537 27.9817C26.645 28.3903 26.1541 28.5947 25.581 28.5947H7.08567ZM17.05 6.24967C17.2389 6.06078 17.3333 5.82334 17.3333 5.53734C17.3333 5.25134 17.2389 5.01245 17.05 4.82067C16.8611 4.62889 16.6222 4.533 16.3333 4.533C16.0444 4.533 15.8056 4.62889 15.6167 4.82067C15.4278 5.01245 15.3333 5.25134 15.3333 5.53734C15.3333 5.82334 15.4278 6.06078 15.6167 6.24967C15.8056 6.43856 16.0444 6.533 16.3333 6.533C16.6222 6.533 16.8611 6.43856 17.05 6.24967ZM6.67533 25.7913C7.94133 24.5804 9.39211 23.6137 11.0277 22.891C12.6634 22.1681 14.432 21.8067 16.3333 21.8067C18.2347 21.8067 20.0032 22.1681 21.639 22.891C23.2746 23.6137 24.7253 24.5804 25.9913 25.7913V8.01367C25.9913 7.911 25.9487 7.81689 25.8633 7.73133C25.7778 7.646 25.6837 7.60333 25.581 7.60333H7.08567C6.983 7.60333 6.88889 7.646 6.80333 7.73133C6.718 7.81689 6.67533 7.911 6.67533 8.01367V25.7913ZM19.4163 17.7067C20.2499 16.8731 20.6667 15.856 20.6667 14.6553C20.6667 13.4549 20.2499 12.4378 19.4163 11.604C18.5826 10.7704 17.5654 10.3537 16.365 10.3537C15.1643 10.3537 14.1472 10.7704 13.3137 11.604C12.4801 12.4378 12.0633 13.4549 12.0633 14.6553C12.0633 15.856 12.4801 16.8731 13.3137 17.7067C14.1472 18.5402 15.1643 18.957 16.365 18.957C17.5654 18.957 18.5826 18.5402 19.4163 17.7067ZM8.19667 26.9193H24.4787V26.651C23.2936 25.5934 22.012 24.8009 20.634 24.2733C19.256 23.7456 17.8224 23.4817 16.3333 23.4817C14.8547 23.4817 13.4259 23.7434 12.047 24.267C10.6681 24.7903 9.38467 25.5764 8.19667 26.6253V26.9193ZM14.5123 16.508C13.9963 15.992 13.7383 15.3744 13.7383 14.6553C13.7383 13.9362 13.9963 13.3187 14.5123 12.8027C15.0283 12.2869 15.6459 12.029 16.365 12.029C17.0841 12.029 17.7017 12.2869 18.2177 12.8027C18.7334 13.3187 18.9913 13.9362 18.9913 14.6553C18.9913 15.3744 18.7334 15.992 18.2177 16.508C17.7017 17.024 17.0841 17.282 16.365 17.282C15.6459 17.282 15.0283 17.024 14.5123 16.508Z" fill="black"/>
</svg>
