<svg width="32" height="32" viewBox="0 0 32 32" fill="none" xmlns="http://www.w3.org/2000/svg">
<path d="M20.8787 22.1127L22.099 20.8923L16.887 15.6577V9.12133H15.212V16.342L20.8787 22.1127ZM16.0023 28.6667C14.2594 28.6667 12.6187 28.3342 11.08 27.6693C9.54133 27.0044 8.19811 26.0984 7.05033 24.9513C5.90278 23.804 4.99633 22.4613 4.331 20.9233C3.66589 19.3853 3.33333 17.745 3.33333 16.0023C3.33333 14.2594 3.66578 12.6187 4.33067 11.08C4.99555 9.54133 5.90155 8.19811 7.04867 7.05033C8.196 5.90277 9.53867 4.99633 11.0767 4.33099C12.6147 3.66588 14.255 3.33333 15.9977 3.33333C17.7406 3.33333 19.3813 3.66577 20.92 4.33066C22.4587 4.99555 23.8019 5.90155 24.9497 7.04866C26.0972 8.196 27.0037 9.53866 27.669 11.0767C28.3341 12.6147 28.6667 14.255 28.6667 15.9977C28.6667 17.7406 28.3342 19.3813 27.6693 20.92C27.0044 22.4587 26.0984 23.8019 24.9513 24.9497C23.804 26.0972 22.4613 27.0037 20.9233 27.669C19.3853 28.3341 17.745 28.6667 16.0023 28.6667ZM16 26.9913C19.0307 26.9913 21.6202 25.9171 23.7687 23.7687C25.9171 21.6202 26.9913 19.0307 26.9913 16C26.9913 12.9693 25.9171 10.3798 23.7687 8.23133C21.6202 6.08288 19.0307 5.00866 16 5.00866C12.9693 5.00866 10.3798 6.08288 8.23133 8.23133C6.08289 10.3798 5.00867 12.9693 5.00867 16C5.00867 19.0307 6.08289 21.6202 8.23133 23.7687C10.3798 25.9171 12.9693 26.9913 16 26.9913Z" fill="black"/>
</svg>
