<svg width="32" height="32" viewBox="0 0 32 32" fill="none" xmlns="http://www.w3.org/2000/svg">
<path d="M27.723 18.377L18.3907 27.723C18.1813 27.9263 17.946 28.0789 17.6847 28.1807C17.4231 28.2824 17.1617 28.3333 16.9003 28.3333C16.6388 28.3333 16.3792 28.2813 16.1217 28.1773C15.8639 28.0733 15.631 27.9219 15.423 27.723L3.62567 15.9163C3.42567 15.7306 3.27144 15.5109 3.163 15.2573C3.05433 15.0038 3 14.7348 3 14.4503V5.09833C3 4.52567 3.20478 4.03278 3.61433 3.61967C4.02389 3.20656 4.51856 3 5.09833 3H14.464C14.7449 3 15.0147 3.05611 15.2733 3.16833C15.532 3.28056 15.7606 3.43244 15.959 3.624L27.723 15.395C27.9406 15.6048 28.0992 15.8408 28.199 16.103C28.2988 16.3652 28.3487 16.6282 28.3487 16.892C28.3487 17.158 28.2972 17.4217 28.1943 17.683C28.0914 17.9443 27.9343 18.1757 27.723 18.377ZM17.2267 26.5657L26.559 17.211C26.6446 17.1257 26.6873 17.0253 26.6873 16.91C26.6873 16.7944 26.6446 16.694 26.559 16.6087L14.624 4.688H5.09833C4.97856 4.688 4.87811 4.72644 4.797 4.80333C4.71589 4.88022 4.67533 4.97856 4.67533 5.09833V14.4077C4.67533 14.459 4.68389 14.5117 4.701 14.5657C4.71789 14.6199 4.74778 14.6656 4.79067 14.7027L16.624 26.5657C16.7093 26.6454 16.8098 26.6853 16.9253 26.6853C17.0407 26.6853 17.1411 26.6454 17.2267 26.5657ZM8.12733 9.65033C8.55022 9.65033 8.912 9.49811 9.21267 9.19367C9.51356 8.88944 9.664 8.52833 9.664 8.11033C9.664 7.68589 9.514 7.32233 9.214 7.01967C8.91378 6.71722 8.55322 6.566 8.13233 6.566C7.70811 6.566 7.34322 6.71678 7.03767 7.01833C6.73233 7.31989 6.57967 7.68211 6.57967 8.105C6.57967 8.52789 6.73256 8.89122 7.03833 9.195C7.34411 9.49856 7.70711 9.65033 8.12733 9.65033Z" fill="black"/>
</svg>
