<svg width="32" height="32" viewBox="0 0 32 32" fill="none" xmlns="http://www.w3.org/2000/svg">
<path d="M26.8403 28L17.7827 18.9422C17.0882 19.5569 16.2779 20.0305 15.3519 20.363C14.4257 20.6954 13.4685 20.8617 12.4803 20.8617C10.116 20.8617 8.11145 20.0407 6.46673 18.3988C4.82224 16.7567 4 14.7674 4 12.431C4 10.0944 4.82096 8.1051 6.46289 6.4632C8.10505 4.82107 10.1027 4 12.4559 4C14.7858 4 16.7715 4.82107 18.413 6.4632C20.0544 8.1051 20.8752 10.0927 20.8752 12.4261C20.8752 13.4073 20.7079 14.3609 20.3733 15.2872C20.0385 16.2134 19.5543 17.0524 18.9208 17.8041L28 26.827L26.8403 28ZM12.4591 19.2779C14.3599 19.2779 15.9739 18.6134 17.3011 17.2845C18.628 15.9557 19.2914 14.3379 19.2914 12.431C19.2914 10.5239 18.628 8.90593 17.3011 7.57719C15.9739 6.24822 14.3599 5.58374 12.4591 5.58374C10.5421 5.58374 8.91705 6.24822 7.58388 7.57719C6.25047 8.90593 5.58376 10.5239 5.58376 12.431C5.58376 14.3379 6.25047 15.9557 7.58388 17.2845C8.91705 18.6134 10.5421 19.2779 12.4591 19.2779Z" fill="black"/>
</svg>
