<svg width="32" height="32" viewBox="0 0 32 32" fill="none" xmlns="http://www.w3.org/2000/svg">
<path d="M13.8307 28.3333L13.2283 24.3257C12.7719 24.1701 12.2804 23.944 11.754 23.6473C11.2273 23.3509 10.7734 23.0368 10.3923 22.705L6.664 24.4027L4 19.6923L7.36933 17.213C7.32489 16.9788 7.29278 16.7231 7.273 16.446C7.25344 16.1691 7.24367 15.9136 7.24367 15.6793C7.24367 15.4538 7.25344 15.2026 7.273 14.9257C7.29278 14.6488 7.32489 14.3803 7.36933 14.1203L4 11.6283L6.664 6.95633L10.3793 8.62833C10.7862 8.29656 11.2444 7.98456 11.754 7.69233C12.2633 7.40011 12.7504 7.183 13.2153 7.041L13.8307 3H19.118L19.7203 7.02067C20.211 7.20178 20.7017 7.42656 21.1923 7.695C21.6828 7.96322 22.1247 8.27433 22.518 8.62833L26.2973 6.95633L28.9487 11.6283L25.528 14.105C25.5896 14.3701 25.6281 14.6368 25.6437 14.905C25.659 15.1734 25.6667 15.4273 25.6667 15.6667C25.6667 15.8973 25.6568 16.1434 25.637 16.405C25.6174 16.6666 25.5811 16.9384 25.528 17.2207L28.9357 19.6923L26.2717 24.4027L22.518 22.6923C22.1024 23.041 21.6541 23.3628 21.173 23.6577C20.6919 23.9526 20.2077 24.1709 19.7203 24.3127L19.118 28.3333H13.8307ZM15.046 26.8203H17.8897L18.3693 23.1C19.0769 22.9222 19.7371 22.6572 20.35 22.305C20.9629 21.953 21.5488 21.506 22.1077 20.964L25.5897 22.4717L26.923 20.1103L23.841 17.836C23.9299 17.4411 24 17.0689 24.0513 16.7193C24.1024 16.3698 24.128 16.0189 24.128 15.6667C24.128 15.2973 24.1058 14.9422 24.0613 14.6013C24.0169 14.2602 23.9434 13.9008 23.841 13.523L26.9487 11.223L25.6153 8.86167L22.0947 10.3693C21.6264 9.84289 21.0616 9.37878 20.4 8.977C19.7384 8.57522 19.0572 8.32733 18.3563 8.23333L17.9027 4.513H15.046L14.605 8.22067C13.8666 8.36756 13.1867 8.61922 12.5653 8.97567C11.944 9.33211 11.365 9.79233 10.8283 10.3563L7.33333 8.86167L6 11.223L9.082 13.4847C8.98467 13.8367 8.91033 14.1939 8.859 14.5563C8.80767 14.9188 8.782 15.2931 8.782 15.6793C8.782 16.0487 8.80767 16.4102 8.859 16.764C8.91033 17.118 8.98045 17.4753 9.06933 17.836L6 20.1103L7.33333 22.4717L10.8153 20.977C11.3487 21.5188 11.9281 21.9658 12.5537 22.318C13.1794 22.67 13.859 22.9349 14.5923 23.1127L15.046 26.8203ZM16.436 19.423C17.482 19.423 18.3696 19.0584 19.0987 18.3293C19.8278 17.6004 20.1923 16.7129 20.1923 15.6667C20.1923 14.6204 19.8278 13.7329 19.0987 13.004C18.3696 12.2749 17.482 11.9103 16.436 11.9103C15.3982 11.9103 14.5127 12.2749 13.7793 13.004C13.0462 13.7329 12.6797 14.6204 12.6797 15.6667C12.6797 16.7129 13.0462 17.6004 13.7793 18.3293C14.5127 19.0584 15.3982 19.423 16.436 19.423Z" fill="black"/>
</svg>
