<svg width="32" height="32" viewBox="0 0 32 32" fill="none" xmlns="http://www.w3.org/2000/svg">
<path d="M24.3008 30C23.2773 30 22.406 29.6373 21.6869 28.9118C20.9676 28.1864 20.608 27.309 20.608 26.2797C20.608 26.1113 20.6666 25.7308 20.7838 25.1382L10.438 19.0014C10.0947 19.3822 9.68682 19.6806 9.21435 19.8963C8.74212 20.1123 8.23141 20.2203 7.68224 20.2203C6.66341 20.2203 5.79506 19.8589 5.07718 19.1361C4.35906 18.413 4 17.5336 4 16.4979C4 15.4622 4.35906 14.5835 5.07718 13.8618C5.79506 13.1404 6.66247 12.7797 7.67941 12.7797C8.21659 12.7797 8.71918 12.8837 9.18718 13.0916C9.65541 13.2993 10.0596 13.5919 10.3999 13.9695L20.7838 7.87528C20.7275 7.69078 20.6842 7.50343 20.6539 7.31325C20.6233 7.1233 20.608 6.92518 20.608 6.71889C20.608 5.69053 20.9687 4.81362 21.6901 4.08817C22.4113 3.36272 23.2836 3 24.3072 3C25.3307 3 26.202 3.36308 26.9211 4.08924C27.6404 4.81516 28 5.69325 28 6.72351C28 7.75378 27.6396 8.6308 26.9189 9.35459C26.1982 10.0786 25.3258 10.4406 24.3015 10.4406C23.7716 10.4406 23.2788 10.3352 22.8231 10.1244C22.3673 9.91366 21.9693 9.63063 21.6291 9.27537L11.2018 15.3159C11.2676 15.5004 11.3158 15.6926 11.3461 15.8925C11.3767 16.0922 11.392 16.2922 11.392 16.4925C11.392 16.6931 11.3792 16.882 11.3535 17.0592C11.3279 17.2366 11.2869 17.4176 11.2307 17.6024L21.6524 23.7101C21.9949 23.3548 22.3918 23.0743 22.8428 22.8684C23.2939 22.6624 23.7818 22.5594 24.3065 22.5594C25.3354 22.5594 26.2082 22.9224 26.9249 23.6486C27.6416 24.3745 28 25.2526 28 26.2829C28 27.3131 27.6393 28.1902 26.9179 28.914C26.1967 29.638 25.3244 30 24.3008 30ZM24.3065 28.2144C24.8519 28.2144 25.3081 28.0289 25.6752 27.6578C26.0425 27.2864 26.2261 26.8262 26.2261 26.2772C26.2261 25.7284 26.0418 25.2692 25.6731 24.8995C25.3041 24.5298 24.8469 24.3449 24.3015 24.3449C23.7564 24.3449 23.3001 24.5306 22.9328 24.902C22.5655 25.2731 22.3819 25.7332 22.3819 26.2822C22.3819 26.8312 22.5664 27.2904 22.9353 27.6599C23.304 28.0296 23.7611 28.2144 24.3065 28.2144ZM7.68471 18.4348C8.23388 18.4348 8.69341 18.248 9.06329 17.8745C9.43318 17.5008 9.61812 17.0418 9.61812 16.4975C9.61812 15.9532 9.43235 15.4951 9.06082 15.123C8.68929 14.7512 8.22906 14.5652 7.68012 14.5652C7.13847 14.5652 6.68529 14.752 6.32059 15.1255C5.95612 15.4992 5.77388 15.9582 5.77388 16.5025C5.77388 17.0468 5.95694 17.5049 6.32306 17.877C6.68941 18.2488 7.14329 18.4348 7.68471 18.4348ZM25.672 8.09803C26.0414 7.72689 26.2261 7.26683 26.2261 6.71783C26.2261 6.16883 26.0418 5.70959 25.6731 5.34012C25.3041 4.97041 24.8469 4.78555 24.3015 4.78555C23.7564 4.78555 23.3001 4.97112 22.9328 5.34225C22.5655 5.71362 22.3819 6.1738 22.3819 6.7228C22.3819 7.27156 22.5674 7.7308 22.9385 8.10051C23.3098 8.47022 23.7658 8.65508 24.3065 8.65508C24.8472 8.65508 25.3024 8.46939 25.672 8.09803Z" fill="black"/>
</svg>
