<svg width="32" height="32" viewBox="0 0 32 32" fill="none" xmlns="http://www.w3.org/2000/svg">
<path d="M15.9868 12.6947L12.1331 8.84101L15.9868 5.00001L19.8534 8.84101L15.9868 12.6947ZM1.99976 27.9433V22.9433C1.99976 22.3758 2.19542 21.8899 2.58676 21.4857C2.97831 21.0815 3.44931 20.8708 3.99976 20.8537H8.35342C8.70565 20.8537 9.0432 20.9417 9.36609 21.1177C9.6892 21.2939 9.96442 21.5358 10.1918 21.8433C10.8533 22.8025 11.6948 23.5439 12.7161 24.0677C13.7376 24.5917 14.8279 24.8537 15.9868 24.8537C17.1456 24.8537 18.238 24.5917 19.2638 24.0677C20.2893 23.5439 21.144 22.8025 21.8278 21.8433C22.0466 21.5358 22.3121 21.2939 22.6241 21.1177C22.9359 20.9417 23.2679 20.8537 23.6201 20.8537H27.9738C28.5329 20.8708 29.0081 21.0815 29.3994 21.4857C29.791 21.8899 29.9868 22.3758 29.9868 22.9433V27.9433H21.8071V24.1307C21.0242 24.8382 20.1354 25.3878 19.1408 25.7793C18.1459 26.1707 17.0945 26.3663 15.9868 26.3663C14.8961 26.3663 13.8546 26.1728 12.8624 25.7857C11.8702 25.3986 10.9758 24.8511 10.1791 24.1433V27.9433H1.99976ZM5.70476 18.2767C4.7732 18.2767 3.96976 17.9391 3.29442 17.264C2.61931 16.5887 2.28176 15.7852 2.28176 14.8537C2.28176 13.8999 2.61931 13.0909 3.29442 12.4267C3.96976 11.7627 4.7732 11.4307 5.70476 11.4307C6.65853 11.4307 7.46753 11.7627 8.13176 12.4267C8.79576 13.0909 9.12776 13.8999 9.12776 14.8537C9.12776 15.7852 8.79576 16.5887 8.13176 17.264C7.46753 17.9391 6.65853 18.2767 5.70476 18.2767ZM26.2688 18.2767C25.3372 18.2767 24.5338 17.9391 23.8584 17.264C23.1833 16.5887 22.8458 15.7852 22.8458 14.8537C22.8458 13.8999 23.1833 13.0909 23.8584 12.4267C24.5338 11.7627 25.3372 11.4307 26.2688 11.4307C27.2225 11.4307 28.0315 11.7627 28.6958 12.4267C29.3598 13.0909 29.6918 13.8999 29.6918 14.8537C29.6918 15.7852 29.3598 16.5887 28.6958 17.264C28.0315 17.9391 27.2225 18.2767 26.2688 18.2767Z" fill="black"/>
</svg>
