<svg width="32" height="32" viewBox="0 0 32 32" fill="none" xmlns="http://www.w3.org/2000/svg">
<path d="M14.1368 21.3223L22.6486 12.8105L21.5481 11.7296L14.1368 19.1532L10.396 15.4123L9.32705 16.4933L14.1368 21.3223ZM16.0022 28C14.3555 28 12.8039 27.6851 11.3475 27.0552C9.89105 26.4253 8.61747 25.5652 7.52674 24.4748C6.436 23.3845 5.57547 22.1115 4.94516 20.6557C4.31505 19.2001 4 17.6489 4 16.0022C4 14.3424 4.31495 12.7823 4.94484 11.3219C5.57474 9.86147 6.43484 8.59116 7.52516 7.51095C8.61547 6.43074 9.88853 5.57547 11.3443 4.94516C12.7999 4.31505 14.3511 4 15.9978 4C17.6576 4 19.2177 4.31495 20.6781 4.94484C22.1385 5.57474 23.4088 6.42958 24.4891 7.50937C25.5693 8.58916 26.4245 9.85895 27.0548 11.3187C27.6849 12.7785 28 14.3382 28 15.9978C28 17.6445 27.6851 19.1961 27.0552 20.6525C26.4253 22.1089 25.5704 23.3825 24.4906 24.4733C23.4108 25.564 22.1411 26.4245 20.6813 27.0548C19.2215 27.6849 17.6618 28 16.0022 28Z" fill="black"/>
</svg>
