<svg width="32" height="32" viewBox="0 0 32 32" fill="none" xmlns="http://www.w3.org/2000/svg">
<path d="M14.564 19.752L21.6717 12.653L20.494 11.4803L14.6137 17.3607L11.5127 14.2597L10.2993 15.4733L14.564 19.752ZM16 28.2563C13.1071 27.4643 10.7172 25.7489 8.83033 23.11C6.94344 20.4713 6 17.5401 6 14.3163V6.74367L16 3L26 6.74367V14.3163C26 17.5401 25.0566 20.4713 23.1697 23.11C21.2828 25.7489 18.8929 27.4643 16 28.2563ZM16 26.5007C18.4284 25.7162 20.423 24.1887 21.9837 21.918C23.5443 19.6473 24.3247 17.1134 24.3247 14.3163V7.90333L16 4.781L7.67533 7.90333V14.3163C7.67533 17.1134 8.45567 19.6473 10.0163 21.918C11.577 24.1887 13.5716 25.7162 16 26.5007Z" fill="black"/>
</svg>
